<?xml version="1.0" encoding="utf-8" standalone="no"?>
<!DOCTYPE svg PUBLIC "-//W3C//DTD SVG 1.1//EN"
  "http://www.w3.org/Graphics/SVG/1.1/DTD/svg11.dtd">
<svg xmlns:xlink="http://www.w3.org/1999/xlink" width="628.13125pt" height="392.589375pt" viewBox="0 0 628.13125 392.589375" xmlns="http://www.w3.org/2000/svg" version="1.1">
 <metadata>
  <rdf:RDF xmlns:dc="http://purl.org/dc/elements/1.1/" xmlns:cc="http://creativecommons.org/ns#" xmlns:rdf="http://www.w3.org/1999/02/22-rdf-syntax-ns#">
   <cc:Work>
    <dc:type rdf:resource="http://purl.org/dc/dcmitype/StillImage"/>
    <dc:date>2026-03-26T15:56:22.355521</dc:date>
    <dc:format>image/svg+xml</dc:format>
    <dc:creator>
     <cc:Agent>
      <dc:title>Matplotlib v3.8.4, https://matplotlib.org/</dc:title>
     </cc:Agent>
    </dc:creator>
   </cc:Work>
  </rdf:RDF>
 </metadata>
 <defs>
  <style type="text/css">*{stroke-linejoin: round; stroke-linecap: butt}</style>
 </defs>
 <g id="figure_1">
  <g id="patch_1">
   <path d="M 0 392.589375 
L 628.13125 392.589375 
L 628.13125 0 
L 0 0 
z
" style="fill: #ffffff"/>
  </g>
  <g id="axes_1">
   <g id="patch_2">
    <path d="M 62.93125 355.033125 
L 620.93125 355.033125 
L 620.93125 22.393125 
L 62.93125 22.393125 
z
" style="fill: #ffffff"/>
   </g>
   <g id="matplotlib.axis_1">
    <g id="xtick_1">
     <g id="line2d_1">
      <path d="M 88.294886 355.033125 
L 88.294886 22.393125 
" clip-path="url(#p2ae1fa5134)" style="fill: none; stroke: #b0b0b0; stroke-width: 0.8; stroke-linecap: square"/>
     </g>
     <g id="line2d_2">
      <defs>
       <path id="m857bea436a" d="M 0 0 
L 0 3.5 
" style="stroke: #000000; stroke-width: 0.8"/>
      </defs>
      <g>
       <use xlink:href="#m857bea436a" x="88.294886" y="355.033125" style="stroke: #000000; stroke-width: 0.8"/>
      </g>
     </g>
     <g id="text_1">
      <!-- 0 -->
      <g transform="translate(85.113636 369.631562) scale(0.1 -0.1)">
       <defs>
        <path id="DejaVuSans-30" d="M 2034 4250 
Q 1547 4250 1301 3770 
Q 1056 3291 1056 2328 
Q 1056 1369 1301 889 
Q 1547 409 2034 409 
Q 2525 409 2770 889 
Q 3016 1369 3016 2328 
Q 3016 3291 2770 3770 
Q 2525 4250 2034 4250 
z
M 2034 4750 
Q 2819 4750 3233 4129 
Q 3647 3509 3647 2328 
Q 3647 1150 3233 529 
Q 2819 -91 2034 -91 
Q 1250 -91 836 529 
Q 422 1150 422 2328 
Q 422 3509 836 4129 
Q 1250 4750 2034 4750 
z
" transform="scale(0.015625)"/>
       </defs>
       <use xlink:href="#DejaVuSans-30"/>
      </g>
     </g>
    </g>
    <g id="xtick_2">
     <g id="line2d_3">
      <path d="M 167.55625 355.033125 
L 167.55625 22.393125 
" clip-path="url(#p2ae1fa5134)" style="fill: none; stroke: #b0b0b0; stroke-width: 0.8; stroke-linecap: square"/>
     </g>
     <g id="line2d_4">
      <g>
       <use xlink:href="#m857bea436a" x="167.55625" y="355.033125" style="stroke: #000000; stroke-width: 0.8"/>
      </g>
     </g>
     <g id="text_2">
      <!-- 5 -->
      <g transform="translate(164.375 369.631562) scale(0.1 -0.1)">
       <defs>
        <path id="DejaVuSans-35" d="M 691 4666 
L 3169 4666 
L 3169 4134 
L 1269 4134 
L 1269 2991 
Q 1406 3038 1543 3061 
Q 1681 3084 1819 3084 
Q 2600 3084 3056 2656 
Q 3513 2228 3513 1497 
Q 3513 744 3044 326 
Q 2575 -91 1722 -91 
Q 1428 -91 1123 -41 
Q 819 9 494 109 
L 494 744 
Q 775 591 1075 516 
Q 1375 441 1709 441 
Q 2250 441 2565 725 
Q 2881 1009 2881 1497 
Q 2881 1984 2565 2268 
Q 2250 2553 1709 2553 
Q 1456 2553 1204 2497 
Q 953 2441 691 2322 
L 691 4666 
z
" transform="scale(0.015625)"/>
       </defs>
       <use xlink:href="#DejaVuSans-35"/>
      </g>
     </g>
    </g>
    <g id="xtick_3">
     <g id="line2d_5">
      <path d="M 246.817614 355.033125 
L 246.817614 22.393125 
" clip-path="url(#p2ae1fa5134)" style="fill: none; stroke: #b0b0b0; stroke-width: 0.8; stroke-linecap: square"/>
     </g>
     <g id="line2d_6">
      <g>
       <use xlink:href="#m857bea436a" x="246.817614" y="355.033125" style="stroke: #000000; stroke-width: 0.8"/>
      </g>
     </g>
     <g id="text_3">
      <!-- 10 -->
      <g transform="translate(240.455114 369.631562) scale(0.1 -0.1)">
       <defs>
        <path id="DejaVuSans-31" d="M 794 531 
L 1825 531 
L 1825 4091 
L 703 3866 
L 703 4441 
L 1819 4666 
L 2450 4666 
L 2450 531 
L 3481 531 
L 3481 0 
L 794 0 
L 794 531 
z
" transform="scale(0.015625)"/>
       </defs>
       <use xlink:href="#DejaVuSans-31"/>
       <use xlink:href="#DejaVuSans-30" x="63.623047"/>
      </g>
     </g>
    </g>
    <g id="xtick_4">
     <g id="line2d_7">
      <path d="M 326.078977 355.033125 
L 326.078977 22.393125 
" clip-path="url(#p2ae1fa5134)" style="fill: none; stroke: #b0b0b0; stroke-width: 0.8; stroke-linecap: square"/>
     </g>
     <g id="line2d_8">
      <g>
       <use xlink:href="#m857bea436a" x="326.078977" y="355.033125" style="stroke: #000000; stroke-width: 0.8"/>
      </g>
     </g>
     <g id="text_4">
      <!-- 15 -->
      <g transform="translate(319.716477 369.631562) scale(0.1 -0.1)">
       <use xlink:href="#DejaVuSans-31"/>
       <use xlink:href="#DejaVuSans-35" x="63.623047"/>
      </g>
     </g>
    </g>
    <g id="xtick_5">
     <g id="line2d_9">
      <path d="M 405.340341 355.033125 
L 405.340341 22.393125 
" clip-path="url(#p2ae1fa5134)" style="fill: none; stroke: #b0b0b0; stroke-width: 0.8; stroke-linecap: square"/>
     </g>
     <g id="line2d_10">
      <g>
       <use xlink:href="#m857bea436a" x="405.340341" y="355.033125" style="stroke: #000000; stroke-width: 0.8"/>
      </g>
     </g>
     <g id="text_5">
      <!-- 20 -->
      <g transform="translate(398.977841 369.631562) scale(0.1 -0.1)">
       <defs>
        <path id="DejaVuSans-32" d="M 1228 531 
L 3431 531 
L 3431 0 
L 469 0 
L 469 531 
Q 828 903 1448 1529 
Q 2069 2156 2228 2338 
Q 2531 2678 2651 2914 
Q 2772 3150 2772 3378 
Q 2772 3750 2511 3984 
Q 2250 4219 1831 4219 
Q 1534 4219 1204 4116 
Q 875 4013 500 3803 
L 500 4441 
Q 881 4594 1212 4672 
Q 1544 4750 1819 4750 
Q 2544 4750 2975 4387 
Q 3406 4025 3406 3419 
Q 3406 3131 3298 2873 
Q 3191 2616 2906 2266 
Q 2828 2175 2409 1742 
Q 1991 1309 1228 531 
z
" transform="scale(0.015625)"/>
       </defs>
       <use xlink:href="#DejaVuSans-32"/>
       <use xlink:href="#DejaVuSans-30" x="63.623047"/>
      </g>
     </g>
    </g>
    <g id="xtick_6">
     <g id="line2d_11">
      <path d="M 484.601705 355.033125 
L 484.601705 22.393125 
" clip-path="url(#p2ae1fa5134)" style="fill: none; stroke: #b0b0b0; stroke-width: 0.8; stroke-linecap: square"/>
     </g>
     <g id="line2d_12">
      <g>
       <use xlink:href="#m857bea436a" x="484.601705" y="355.033125" style="stroke: #000000; stroke-width: 0.8"/>
      </g>
     </g>
     <g id="text_6">
      <!-- 25 -->
      <g transform="translate(478.239205 369.631562) scale(0.1 -0.1)">
       <use xlink:href="#DejaVuSans-32"/>
       <use xlink:href="#DejaVuSans-35" x="63.623047"/>
      </g>
     </g>
    </g>
    <g id="xtick_7">
     <g id="line2d_13">
      <path d="M 563.863068 355.033125 
L 563.863068 22.393125 
" clip-path="url(#p2ae1fa5134)" style="fill: none; stroke: #b0b0b0; stroke-width: 0.8; stroke-linecap: square"/>
     </g>
     <g id="line2d_14">
      <g>
       <use xlink:href="#m857bea436a" x="563.863068" y="355.033125" style="stroke: #000000; stroke-width: 0.8"/>
      </g>
     </g>
     <g id="text_7">
      <!-- 30 -->
      <g transform="translate(557.500568 369.631562) scale(0.1 -0.1)">
       <defs>
        <path id="DejaVuSans-33" d="M 2597 2516 
Q 3050 2419 3304 2112 
Q 3559 1806 3559 1356 
Q 3559 666 3084 287 
Q 2609 -91 1734 -91 
Q 1441 -91 1130 -33 
Q 819 25 488 141 
L 488 750 
Q 750 597 1062 519 
Q 1375 441 1716 441 
Q 2309 441 2620 675 
Q 2931 909 2931 1356 
Q 2931 1769 2642 2001 
Q 2353 2234 1838 2234 
L 1294 2234 
L 1294 2753 
L 1863 2753 
Q 2328 2753 2575 2939 
Q 2822 3125 2822 3475 
Q 2822 3834 2567 4026 
Q 2313 4219 1838 4219 
Q 1578 4219 1281 4162 
Q 984 4106 628 3988 
L 628 4550 
Q 988 4650 1302 4700 
Q 1616 4750 1894 4750 
Q 2613 4750 3031 4423 
Q 3450 4097 3450 3541 
Q 3450 3153 3228 2886 
Q 3006 2619 2597 2516 
z
" transform="scale(0.015625)"/>
       </defs>
       <use xlink:href="#DejaVuSans-33"/>
       <use xlink:href="#DejaVuSans-30" x="63.623047"/>
      </g>
     </g>
    </g>
    <g id="text_8">
     <!-- Angle of Incidence (degrees) -->
     <g transform="translate(270.060937 383.309687) scale(0.1 -0.1)">
      <defs>
       <path id="DejaVuSans-41" d="M 2188 4044 
L 1331 1722 
L 3047 1722 
L 2188 4044 
z
M 1831 4666 
L 2547 4666 
L 4325 0 
L 3669 0 
L 3244 1197 
L 1141 1197 
L 716 0 
L 50 0 
L 1831 4666 
z
" transform="scale(0.015625)"/>
       <path id="DejaVuSans-6e" d="M 3513 2113 
L 3513 0 
L 2938 0 
L 2938 2094 
Q 2938 2591 2744 2837 
Q 2550 3084 2163 3084 
Q 1697 3084 1428 2787 
Q 1159 2491 1159 1978 
L 1159 0 
L 581 0 
L 581 3500 
L 1159 3500 
L 1159 2956 
Q 1366 3272 1645 3428 
Q 1925 3584 2291 3584 
Q 2894 3584 3203 3211 
Q 3513 2838 3513 2113 
z
" transform="scale(0.015625)"/>
       <path id="DejaVuSans-67" d="M 2906 1791 
Q 2906 2416 2648 2759 
Q 2391 3103 1925 3103 
Q 1463 3103 1205 2759 
Q 947 2416 947 1791 
Q 947 1169 1205 825 
Q 1463 481 1925 481 
Q 2391 481 2648 825 
Q 2906 1169 2906 1791 
z
M 3481 434 
Q 3481 -459 3084 -895 
Q 2688 -1331 1869 -1331 
Q 1566 -1331 1297 -1286 
Q 1028 -1241 775 -1147 
L 775 -588 
Q 1028 -725 1275 -790 
Q 1522 -856 1778 -856 
Q 2344 -856 2625 -561 
Q 2906 -266 2906 331 
L 2906 616 
Q 2728 306 2450 153 
Q 2172 0 1784 0 
Q 1141 0 747 490 
Q 353 981 353 1791 
Q 353 2603 747 3093 
Q 1141 3584 1784 3584 
Q 2172 3584 2450 3431 
Q 2728 3278 2906 2969 
L 2906 3500 
L 3481 3500 
L 3481 434 
z
" transform="scale(0.015625)"/>
       <path id="DejaVuSans-6c" d="M 603 4863 
L 1178 4863 
L 1178 0 
L 603 0 
L 603 4863 
z
" transform="scale(0.015625)"/>
       <path id="DejaVuSans-65" d="M 3597 1894 
L 3597 1613 
L 953 1613 
Q 991 1019 1311 708 
Q 1631 397 2203 397 
Q 2534 397 2845 478 
Q 3156 559 3463 722 
L 3463 178 
Q 3153 47 2828 -22 
Q 2503 -91 2169 -91 
Q 1331 -91 842 396 
Q 353 884 353 1716 
Q 353 2575 817 3079 
Q 1281 3584 2069 3584 
Q 2775 3584 3186 3129 
Q 3597 2675 3597 1894 
z
M 3022 2063 
Q 3016 2534 2758 2815 
Q 2500 3097 2075 3097 
Q 1594 3097 1305 2825 
Q 1016 2553 972 2059 
L 3022 2063 
z
" transform="scale(0.015625)"/>
       <path id="DejaVuSans-20" transform="scale(0.015625)"/>
       <path id="DejaVuSans-6f" d="M 1959 3097 
Q 1497 3097 1228 2736 
Q 959 2375 959 1747 
Q 959 1119 1226 758 
Q 1494 397 1959 397 
Q 2419 397 2687 759 
Q 2956 1122 2956 1747 
Q 2956 2369 2687 2733 
Q 2419 3097 1959 3097 
z
M 1959 3584 
Q 2709 3584 3137 3096 
Q 3566 2609 3566 1747 
Q 3566 888 3137 398 
Q 2709 -91 1959 -91 
Q 1206 -91 779 398 
Q 353 888 353 1747 
Q 353 2609 779 3096 
Q 1206 3584 1959 3584 
z
" transform="scale(0.015625)"/>
       <path id="DejaVuSans-66" d="M 2375 4863 
L 2375 4384 
L 1825 4384 
Q 1516 4384 1395 4259 
Q 1275 4134 1275 3809 
L 1275 3500 
L 2222 3500 
L 2222 3053 
L 1275 3053 
L 1275 0 
L 697 0 
L 697 3053 
L 147 3053 
L 147 3500 
L 697 3500 
L 697 3744 
Q 697 4328 969 4595 
Q 1241 4863 1831 4863 
L 2375 4863 
z
" transform="scale(0.015625)"/>
       <path id="DejaVuSans-49" d="M 628 4666 
L 1259 4666 
L 1259 0 
L 628 0 
L 628 4666 
z
" transform="scale(0.015625)"/>
       <path id="DejaVuSans-63" d="M 3122 3366 
L 3122 2828 
Q 2878 2963 2633 3030 
Q 2388 3097 2138 3097 
Q 1578 3097 1268 2742 
Q 959 2388 959 1747 
Q 959 1106 1268 751 
Q 1578 397 2138 397 
Q 2388 397 2633 464 
Q 2878 531 3122 666 
L 3122 134 
Q 2881 22 2623 -34 
Q 2366 -91 2075 -91 
Q 1284 -91 818 406 
Q 353 903 353 1747 
Q 353 2603 823 3093 
Q 1294 3584 2113 3584 
Q 2378 3584 2631 3529 
Q 2884 3475 3122 3366 
z
" transform="scale(0.015625)"/>
       <path id="DejaVuSans-69" d="M 603 3500 
L 1178 3500 
L 1178 0 
L 603 0 
L 603 3500 
z
M 603 4863 
L 1178 4863 
L 1178 4134 
L 603 4134 
L 603 4863 
z
" transform="scale(0.015625)"/>
       <path id="DejaVuSans-64" d="M 2906 2969 
L 2906 4863 
L 3481 4863 
L 3481 0 
L 2906 0 
L 2906 525 
Q 2725 213 2448 61 
Q 2172 -91 1784 -91 
Q 1150 -91 751 415 
Q 353 922 353 1747 
Q 353 2572 751 3078 
Q 1150 3584 1784 3584 
Q 2172 3584 2448 3432 
Q 2725 3281 2906 2969 
z
M 947 1747 
Q 947 1113 1208 752 
Q 1469 391 1925 391 
Q 2381 391 2643 752 
Q 2906 1113 2906 1747 
Q 2906 2381 2643 2742 
Q 2381 3103 1925 3103 
Q 1469 3103 1208 2742 
Q 947 2381 947 1747 
z
" transform="scale(0.015625)"/>
       <path id="DejaVuSans-28" d="M 1984 4856 
Q 1566 4138 1362 3434 
Q 1159 2731 1159 2009 
Q 1159 1288 1364 580 
Q 1569 -128 1984 -844 
L 1484 -844 
Q 1016 -109 783 600 
Q 550 1309 550 2009 
Q 550 2706 781 3412 
Q 1013 4119 1484 4856 
L 1984 4856 
z
" transform="scale(0.015625)"/>
       <path id="DejaVuSans-72" d="M 2631 2963 
Q 2534 3019 2420 3045 
Q 2306 3072 2169 3072 
Q 1681 3072 1420 2755 
Q 1159 2438 1159 1844 
L 1159 0 
L 581 0 
L 581 3500 
L 1159 3500 
L 1159 2956 
Q 1341 3275 1631 3429 
Q 1922 3584 2338 3584 
Q 2397 3584 2469 3576 
Q 2541 3569 2628 3553 
L 2631 2963 
z
" transform="scale(0.015625)"/>
       <path id="DejaVuSans-73" d="M 2834 3397 
L 2834 2853 
Q 2591 2978 2328 3040 
Q 2066 3103 1784 3103 
Q 1356 3103 1142 2972 
Q 928 2841 928 2578 
Q 928 2378 1081 2264 
Q 1234 2150 1697 2047 
L 1894 2003 
Q 2506 1872 2764 1633 
Q 3022 1394 3022 966 
Q 3022 478 2636 193 
Q 2250 -91 1575 -91 
Q 1294 -91 989 -36 
Q 684 19 347 128 
L 347 722 
Q 666 556 975 473 
Q 1284 391 1588 391 
Q 1994 391 2212 530 
Q 2431 669 2431 922 
Q 2431 1156 2273 1281 
Q 2116 1406 1581 1522 
L 1381 1569 
Q 847 1681 609 1914 
Q 372 2147 372 2553 
Q 372 3047 722 3315 
Q 1072 3584 1716 3584 
Q 2034 3584 2315 3537 
Q 2597 3491 2834 3397 
z
" transform="scale(0.015625)"/>
       <path id="DejaVuSans-29" d="M 513 4856 
L 1013 4856 
Q 1481 4119 1714 3412 
Q 1947 2706 1947 2009 
Q 1947 1309 1714 600 
Q 1481 -109 1013 -844 
L 513 -844 
Q 928 -128 1133 580 
Q 1338 1288 1338 2009 
Q 1338 2731 1133 3434 
Q 928 4138 513 4856 
z
" transform="scale(0.015625)"/>
      </defs>
      <use xlink:href="#DejaVuSans-41"/>
      <use xlink:href="#DejaVuSans-6e" x="68.408203"/>
      <use xlink:href="#DejaVuSans-67" x="131.787109"/>
      <use xlink:href="#DejaVuSans-6c" x="195.263672"/>
      <use xlink:href="#DejaVuSans-65" x="223.046875"/>
      <use xlink:href="#DejaVuSans-20" x="284.570312"/>
      <use xlink:href="#DejaVuSans-6f" x="316.357422"/>
      <use xlink:href="#DejaVuSans-66" x="377.539062"/>
      <use xlink:href="#DejaVuSans-20" x="412.744141"/>
      <use xlink:href="#DejaVuSans-49" x="444.53125"/>
      <use xlink:href="#DejaVuSans-6e" x="474.023438"/>
      <use xlink:href="#DejaVuSans-63" x="537.402344"/>
      <use xlink:href="#DejaVuSans-69" x="592.382812"/>
      <use xlink:href="#DejaVuSans-64" x="620.166016"/>
      <use xlink:href="#DejaVuSans-65" x="683.642578"/>
      <use xlink:href="#DejaVuSans-6e" x="745.166016"/>
      <use xlink:href="#DejaVuSans-63" x="808.544922"/>
      <use xlink:href="#DejaVuSans-65" x="863.525391"/>
      <use xlink:href="#DejaVuSans-20" x="925.048828"/>
      <use xlink:href="#DejaVuSans-28" x="956.835938"/>
      <use xlink:href="#DejaVuSans-64" x="995.849609"/>
      <use xlink:href="#DejaVuSans-65" x="1059.326172"/>
      <use xlink:href="#DejaVuSans-67" x="1120.849609"/>
      <use xlink:href="#DejaVuSans-72" x="1184.326172"/>
      <use xlink:href="#DejaVuSans-65" x="1223.189453"/>
      <use xlink:href="#DejaVuSans-65" x="1284.712891"/>
      <use xlink:href="#DejaVuSans-73" x="1346.236328"/>
      <use xlink:href="#DejaVuSans-29" x="1398.335938"/>
     </g>
    </g>
   </g>
   <g id="matplotlib.axis_2">
    <g id="ytick_1">
     <g id="line2d_15">
      <path d="M 62.93125 341.784748 
L 620.93125 341.784748 
" clip-path="url(#p2ae1fa5134)" style="fill: none; stroke: #b0b0b0; stroke-width: 0.8; stroke-linecap: square"/>
     </g>
     <g id="line2d_16">
      <defs>
       <path id="mf27efe76dc" d="M 0 0 
L -3.5 0 
" style="stroke: #000000; stroke-width: 0.8"/>
      </defs>
      <g>
       <use xlink:href="#mf27efe76dc" x="62.93125" y="341.784748" style="stroke: #000000; stroke-width: 0.8"/>
      </g>
     </g>
     <g id="text_9">
      <!-- 0.0000 -->
      <g transform="translate(20.940625 345.583967) scale(0.1 -0.1)">
       <defs>
        <path id="DejaVuSans-2e" d="M 684 794 
L 1344 794 
L 1344 0 
L 684 0 
L 684 794 
z
" transform="scale(0.015625)"/>
       </defs>
       <use xlink:href="#DejaVuSans-30"/>
       <use xlink:href="#DejaVuSans-2e" x="63.623047"/>
       <use xlink:href="#DejaVuSans-30" x="95.410156"/>
       <use xlink:href="#DejaVuSans-30" x="159.033203"/>
       <use xlink:href="#DejaVuSans-30" x="222.65625"/>
       <use xlink:href="#DejaVuSans-30" x="286.279297"/>
      </g>
     </g>
    </g>
    <g id="ytick_2">
     <g id="line2d_17">
      <path d="M 62.93125 273.009121 
L 620.93125 273.009121 
" clip-path="url(#p2ae1fa5134)" style="fill: none; stroke: #b0b0b0; stroke-width: 0.8; stroke-linecap: square"/>
     </g>
     <g id="line2d_18">
      <g>
       <use xlink:href="#mf27efe76dc" x="62.93125" y="273.009121" style="stroke: #000000; stroke-width: 0.8"/>
      </g>
     </g>
     <g id="text_10">
      <!-- 0.0002 -->
      <g transform="translate(20.940625 276.808339) scale(0.1 -0.1)">
       <use xlink:href="#DejaVuSans-30"/>
       <use xlink:href="#DejaVuSans-2e" x="63.623047"/>
       <use xlink:href="#DejaVuSans-30" x="95.410156"/>
       <use xlink:href="#DejaVuSans-30" x="159.033203"/>
       <use xlink:href="#DejaVuSans-30" x="222.65625"/>
       <use xlink:href="#DejaVuSans-32" x="286.279297"/>
      </g>
     </g>
    </g>
    <g id="ytick_3">
     <g id="line2d_19">
      <path d="M 62.93125 204.233493 
L 620.93125 204.233493 
" clip-path="url(#p2ae1fa5134)" style="fill: none; stroke: #b0b0b0; stroke-width: 0.8; stroke-linecap: square"/>
     </g>
     <g id="line2d_20">
      <g>
       <use xlink:href="#mf27efe76dc" x="62.93125" y="204.233493" style="stroke: #000000; stroke-width: 0.8"/>
      </g>
     </g>
     <g id="text_11">
      <!-- 0.0004 -->
      <g transform="translate(20.940625 208.032712) scale(0.1 -0.1)">
       <defs>
        <path id="DejaVuSans-34" d="M 2419 4116 
L 825 1625 
L 2419 1625 
L 2419 4116 
z
M 2253 4666 
L 3047 4666 
L 3047 1625 
L 3713 1625 
L 3713 1100 
L 3047 1100 
L 3047 0 
L 2419 0 
L 2419 1100 
L 313 1100 
L 313 1709 
L 2253 4666 
z
" transform="scale(0.015625)"/>
       </defs>
       <use xlink:href="#DejaVuSans-30"/>
       <use xlink:href="#DejaVuSans-2e" x="63.623047"/>
       <use xlink:href="#DejaVuSans-30" x="95.410156"/>
       <use xlink:href="#DejaVuSans-30" x="159.033203"/>
       <use xlink:href="#DejaVuSans-30" x="222.65625"/>
       <use xlink:href="#DejaVuSans-34" x="286.279297"/>
      </g>
     </g>
    </g>
    <g id="ytick_4">
     <g id="line2d_21">
      <path d="M 62.93125 135.457866 
L 620.93125 135.457866 
" clip-path="url(#p2ae1fa5134)" style="fill: none; stroke: #b0b0b0; stroke-width: 0.8; stroke-linecap: square"/>
     </g>
     <g id="line2d_22">
      <g>
       <use xlink:href="#mf27efe76dc" x="62.93125" y="135.457866" style="stroke: #000000; stroke-width: 0.8"/>
      </g>
     </g>
     <g id="text_12">
      <!-- 0.0006 -->
      <g transform="translate(20.940625 139.257085) scale(0.1 -0.1)">
       <defs>
        <path id="DejaVuSans-36" d="M 2113 2584 
Q 1688 2584 1439 2293 
Q 1191 2003 1191 1497 
Q 1191 994 1439 701 
Q 1688 409 2113 409 
Q 2538 409 2786 701 
Q 3034 994 3034 1497 
Q 3034 2003 2786 2293 
Q 2538 2584 2113 2584 
z
M 3366 4563 
L 3366 3988 
Q 3128 4100 2886 4159 
Q 2644 4219 2406 4219 
Q 1781 4219 1451 3797 
Q 1122 3375 1075 2522 
Q 1259 2794 1537 2939 
Q 1816 3084 2150 3084 
Q 2853 3084 3261 2657 
Q 3669 2231 3669 1497 
Q 3669 778 3244 343 
Q 2819 -91 2113 -91 
Q 1303 -91 875 529 
Q 447 1150 447 2328 
Q 447 3434 972 4092 
Q 1497 4750 2381 4750 
Q 2619 4750 2861 4703 
Q 3103 4656 3366 4563 
z
" transform="scale(0.015625)"/>
       </defs>
       <use xlink:href="#DejaVuSans-30"/>
       <use xlink:href="#DejaVuSans-2e" x="63.623047"/>
       <use xlink:href="#DejaVuSans-30" x="95.410156"/>
       <use xlink:href="#DejaVuSans-30" x="159.033203"/>
       <use xlink:href="#DejaVuSans-30" x="222.65625"/>
       <use xlink:href="#DejaVuSans-36" x="286.279297"/>
      </g>
     </g>
    </g>
    <g id="ytick_5">
     <g id="line2d_23">
      <path d="M 62.93125 66.682238 
L 620.93125 66.682238 
" clip-path="url(#p2ae1fa5134)" style="fill: none; stroke: #b0b0b0; stroke-width: 0.8; stroke-linecap: square"/>
     </g>
     <g id="line2d_24">
      <g>
       <use xlink:href="#mf27efe76dc" x="62.93125" y="66.682238" style="stroke: #000000; stroke-width: 0.8"/>
      </g>
     </g>
     <g id="text_13">
      <!-- 0.0008 -->
      <g transform="translate(20.940625 70.481457) scale(0.1 -0.1)">
       <defs>
        <path id="DejaVuSans-38" d="M 2034 2216 
Q 1584 2216 1326 1975 
Q 1069 1734 1069 1313 
Q 1069 891 1326 650 
Q 1584 409 2034 409 
Q 2484 409 2743 651 
Q 3003 894 3003 1313 
Q 3003 1734 2745 1975 
Q 2488 2216 2034 2216 
z
M 1403 2484 
Q 997 2584 770 2862 
Q 544 3141 544 3541 
Q 544 4100 942 4425 
Q 1341 4750 2034 4750 
Q 2731 4750 3128 4425 
Q 3525 4100 3525 3541 
Q 3525 3141 3298 2862 
Q 3072 2584 2669 2484 
Q 3125 2378 3379 2068 
Q 3634 1759 3634 1313 
Q 3634 634 3220 271 
Q 2806 -91 2034 -91 
Q 1263 -91 848 271 
Q 434 634 434 1313 
Q 434 1759 690 2068 
Q 947 2378 1403 2484 
z
M 1172 3481 
Q 1172 3119 1398 2916 
Q 1625 2713 2034 2713 
Q 2441 2713 2670 2916 
Q 2900 3119 2900 3481 
Q 2900 3844 2670 4047 
Q 2441 4250 2034 4250 
Q 1625 4250 1398 4047 
Q 1172 3844 1172 3481 
z
" transform="scale(0.015625)"/>
       </defs>
       <use xlink:href="#DejaVuSans-30"/>
       <use xlink:href="#DejaVuSans-2e" x="63.623047"/>
       <use xlink:href="#DejaVuSans-30" x="95.410156"/>
       <use xlink:href="#DejaVuSans-30" x="159.033203"/>
       <use xlink:href="#DejaVuSans-30" x="222.65625"/>
       <use xlink:href="#DejaVuSans-38" x="286.279297"/>
      </g>
     </g>
    </g>
    <g id="text_14">
     <!-- dα/dβ * R(β) -->
     <g transform="translate(14.860938 219.477187) rotate(-90) scale(0.1 -0.1)">
      <defs>
       <path id="DejaVuSans-3b1" d="M 2644 1628 
L 2506 2350 
Q 2366 3091 1809 3091 
Q 1391 3091 1200 2747 
Q 959 2316 959 1747 
Q 959 1059 1194 731 
Q 1431 397 1809 397 
Q 2228 397 2453 1063 
L 2644 1628 
z
M 2966 2584 
L 3275 3500 
L 3788 3500 
L 3147 1603 
L 3272 919 
Q 3300 766 3409 638 
Q 3538 488 3638 488 
L 3913 488 
L 3913 0 
L 3569 0 
Q 3275 0 3013 263 
Q 2884 394 2831 669 
Q 2688 322 2394 50 
Q 2256 -78 1809 -78 
Q 1075 -78 719 397 
Q 353 888 353 1747 
Q 353 2666 750 3097 
Q 1191 3578 1809 3578 
Q 2781 3578 2966 2584 
z
" transform="scale(0.015625)"/>
       <path id="DejaVuSans-2f" d="M 1625 4666 
L 2156 4666 
L 531 -594 
L 0 -594 
L 1625 4666 
z
" transform="scale(0.015625)"/>
       <path id="DejaVuSans-3b2" d="M 1178 216 
L 1178 -1331 
L 600 -1331 
L 600 3478 
Q 600 4903 1931 4903 
Q 3288 4903 3288 3700 
Q 3288 2844 2750 2531 
Q 3625 2250 3625 1416 
Q 3625 -66 2119 -66 
Q 1456 -66 1178 216 
z
M 1178 966 
Q 1525 425 2141 425 
Q 3041 425 3041 1406 
Q 3041 2288 1591 2219 
L 1591 2750 
Q 2725 2750 2725 3750 
Q 2725 4434 1994 4434 
Q 1178 4434 1178 3459 
L 1178 966 
z
" transform="scale(0.015625)"/>
       <path id="DejaVuSans-2a" d="M 3009 3897 
L 1888 3291 
L 3009 2681 
L 2828 2375 
L 1778 3009 
L 1778 1831 
L 1422 1831 
L 1422 3009 
L 372 2375 
L 191 2681 
L 1313 3291 
L 191 3897 
L 372 4206 
L 1422 3572 
L 1422 4750 
L 1778 4750 
L 1778 3572 
L 2828 4206 
L 3009 3897 
z
" transform="scale(0.015625)"/>
       <path id="DejaVuSans-52" d="M 2841 2188 
Q 3044 2119 3236 1894 
Q 3428 1669 3622 1275 
L 4263 0 
L 3584 0 
L 2988 1197 
Q 2756 1666 2539 1819 
Q 2322 1972 1947 1972 
L 1259 1972 
L 1259 0 
L 628 0 
L 628 4666 
L 2053 4666 
Q 2853 4666 3247 4331 
Q 3641 3997 3641 3322 
Q 3641 2881 3436 2590 
Q 3231 2300 2841 2188 
z
M 1259 4147 
L 1259 2491 
L 2053 2491 
Q 2509 2491 2742 2702 
Q 2975 2913 2975 3322 
Q 2975 3731 2742 3939 
Q 2509 4147 2053 4147 
L 1259 4147 
z
" transform="scale(0.015625)"/>
      </defs>
      <use xlink:href="#DejaVuSans-64"/>
      <use xlink:href="#DejaVuSans-3b1" x="63.476562"/>
      <use xlink:href="#DejaVuSans-2f" x="129.394531"/>
      <use xlink:href="#DejaVuSans-64" x="163.085938"/>
      <use xlink:href="#DejaVuSans-3b2" x="226.5625"/>
      <use xlink:href="#DejaVuSans-20" x="290.380859"/>
      <use xlink:href="#DejaVuSans-2a" x="322.167969"/>
      <use xlink:href="#DejaVuSans-20" x="372.167969"/>
      <use xlink:href="#DejaVuSans-52" x="403.955078"/>
      <use xlink:href="#DejaVuSans-28" x="473.4375"/>
      <use xlink:href="#DejaVuSans-3b2" x="512.451172"/>
      <use xlink:href="#DejaVuSans-29" x="576.269531"/>
     </g>
    </g>
   </g>
   <g id="line2d_25">
    <path d="M 88.294886 337.263715 
L 93.418853 337.416464 
L 98.54282 337.569254 
L 103.666787 337.72208 
L 108.790754 337.874937 
L 113.914721 338.027821 
L 119.038688 338.180728 
L 124.162655 338.333652 
L 129.286622 338.342844 
L 134.410589 338.286122 
L 139.534556 338.229447 
L 144.658523 338.172818 
L 149.78249 338.116238 
L 154.906457 338.059709 
L 160.030424 338.003232 
L 165.15439 337.94681 
L 170.278357 337.890444 
L 175.402324 337.864518 
L 180.526291 337.841812 
L 185.650258 337.787068 
L 190.774225 337.732386 
L 195.898192 337.636085 
L 201.022159 337.493015 
L 206.146126 337.347426 
L 211.270093 337.150208 
L 216.39406 336.883342 
L 221.518027 336.616663 
L 226.641994 336.350181 
L 231.765961 336.083904 
L 236.889928 335.817841 
L 242.013895 335.552001 
L 247.137862 335.286393 
L 252.261829 335.021026 
L 257.385795 334.694077 
L 262.509762 334.093605 
L 267.633729 333.493641 
L 272.757696 332.894207 
L 277.881663 332.295322 
L 283.00563 331.697008 
L 288.129597 331.24802 
L 293.253564 330.211015 
L 298.377531 329.110541 
L 303.501498 328.011167 
L 308.625465 326.912931 
L 313.749432 325.815873 
L 318.873399 324.720034 
L 323.997366 323.625453 
L 329.121333 322.532171 
L 334.2453 321.652741 
L 339.369267 320.701451 
L 344.493233 319.563738 
L 349.6172 318.42754 
L 354.741167 317.292901 
L 359.865134 316.159867 
L 364.989101 315.136134 
L 370.113068 313.675646 
L 375.237035 311.304755 
L 380.361002 308.937211 
L 385.484969 306.57311 
L 390.608936 304.212549 
L 395.732903 301.855629 
L 400.85687 299.502448 
L 405.980837 297.153108 
L 411.104804 294.807711 
L 416.228771 293.580051 
L 421.352738 291.671368 
L 426.476705 289.766283 
L 431.600671 287.864886 
L 436.724638 285.967268 
L 441.848605 284.073521 
L 446.972572 282.55185 
L 452.096539 278.128333 
L 457.220506 273.623211 
L 462.344473 269.12688 
L 467.46844 264.639557 
L 472.592407 260.161467 
L 477.716374 255.692835 
L 482.840341 251.233889 
L 487.964308 246.784863 
L 493.088275 243.66091 
L 498.212242 240.895394 
L 503.336209 237.769261 
L 508.460176 234.651344 
L 513.584143 231.541827 
L 518.70811 228.440895 
L 523.832076 225.777764 
L 528.956043 221.453614 
L 534.08001 214.669503 
L 539.203977 207.903097 
L 544.327944 201.154803 
L 549.451911 194.42503 
L 554.575878 187.714198 
L 559.699845 181.022732 
L 564.823812 174.351061 
L 569.947779 167.699626 
L 575.071746 161.31757 
L 580.195713 155.832745 
L 585.31968 150.366562 
L 590.443647 144.919418 
L 595.567614 139.491717 
" clip-path="url(#p2ae1fa5134)" style="fill: none; stroke: #1f77b4; stroke-width: 1.5; stroke-linecap: square"/>
   </g>
   <g id="line2d_26">
    <path d="M 88.294886 336.652145 
L 93.418853 336.803148 
L 98.54282 336.954198 
L 103.666787 337.105289 
L 108.790754 337.256419 
L 113.914721 337.407582 
L 119.038688 337.558773 
L 124.162655 337.709988 
L 129.286622 337.725543 
L 134.410589 337.71769 
L 139.534556 337.709879 
L 144.658523 337.702111 
L 149.78249 337.694385 
L 154.906457 337.686703 
L 160.030424 337.679064 
L 165.15439 337.671469 
L 170.278357 337.663918 
L 175.402324 337.652719 
L 180.526291 337.633851 
L 185.650258 337.607532 
L 190.774225 337.581266 
L 195.898192 337.564877 
L 201.022159 337.571066 
L 206.146126 337.58703 
L 211.270093 337.594493 
L 216.39406 337.511062 
L 221.518027 337.427718 
L 226.641994 337.344465 
L 231.765961 337.261305 
L 236.889928 337.178242 
L 242.013895 337.095279 
L 247.137862 337.012418 
L 252.261829 336.937367 
L 257.385795 336.929754 
L 262.509762 336.941639 
L 267.633729 336.955063 
L 272.757696 336.968532 
L 277.881663 336.982047 
L 283.00563 336.995606 
L 288.129597 337.00569 
L 293.253564 336.750849 
L 298.377531 336.403869 
L 303.501498 336.057253 
L 308.625465 335.711012 
L 313.749432 335.36516 
L 318.873399 335.019708 
L 323.997366 334.674671 
L 329.121333 334.330059 
L 334.2453 333.999818 
L 339.369267 333.585 
L 344.493233 333.061482 
L 349.6172 332.538641 
L 354.741167 332.016499 
L 359.865134 331.495075 
L 364.989101 331.034841 
L 370.113068 330.307288 
L 375.237035 328.665138 
L 380.361002 327.025197 
L 385.484969 325.387529 
L 390.608936 323.752203 
L 395.732903 322.119284 
L 400.85687 320.488842 
L 405.980837 318.860946 
L 411.104804 317.312787 
L 416.228771 316.156799 
L 421.352738 314.234079 
L 426.476705 312.307742 
L 431.600671 310.384778 
L 436.724638 308.465276 
L 441.848605 306.549324 
L 446.972572 305.489569 
L 452.096539 302.728282 
L 457.220506 299.551428 
L 462.344473 296.380676 
L 467.46844 293.216179 
L 472.592407 290.058093 
L 477.716374 286.906576 
L 482.840341 283.761789 
L 487.964308 280.623893 
L 493.088275 277.399092 
L 498.212242 273.120727 
L 503.336209 267.920242 
L 508.460176 262.731559 
L 513.584143 257.55496 
L 518.70811 252.39073 
L 523.832076 248.327143 
L 528.956043 242.723613 
L 534.08001 231.976791 
L 539.203977 221.256134 
L 544.327944 210.56226 
L 549.451911 199.895794 
L 554.575878 189.257374 
L 559.699845 178.647647 
L 564.823812 168.067269 
L 569.947779 157.516909 
L 575.071746 147.02064 
L 580.195713 136.968225 
L 585.31968 126.946753 
L 590.443647 116.956909 
L 595.567614 106.999389 
" clip-path="url(#p2ae1fa5134)" style="fill: none; stroke-dasharray: 5.55,2.4; stroke-dashoffset: 0; stroke: #1f77b4; stroke-width: 1.5"/>
   </g>
   <g id="line2d_27">
    <path d="M 88.294886 338.399283 
L 93.418853 338.513589 
L 98.54282 338.627782 
L 103.666787 338.741875 
L 108.790754 338.85588 
L 113.914721 338.969811 
L 119.038688 339.083679 
L 124.162655 339.197498 
L 129.286622 339.203479 
L 134.410589 339.15989 
L 139.534556 339.116176 
L 144.658523 339.072331 
L 149.78249 339.028349 
L 154.906457 338.984227 
L 160.030424 338.939959 
L 165.15439 338.895541 
L 170.278357 338.850966 
L 175.402324 338.829138 
L 180.526291 338.809566 
L 185.650258 338.765626 
L 190.774225 338.721514 
L 195.898192 338.645685 
L 201.022159 338.534137 
L 206.146126 338.420296 
L 211.270093 338.266862 
L 216.39406 338.059988 
L 221.518027 337.852597 
L 226.641994 337.644663 
L 231.765961 337.436163 
L 236.889928 337.227074 
L 242.013895 337.017372 
L 247.137862 336.807033 
L 252.261829 336.596033 
L 257.385795 336.336841 
L 262.509762 335.866102 
L 267.633729 335.393966 
L 272.757696 334.92038 
L 277.881663 334.445288 
L 283.00563 333.968635 
L 288.129597 333.605818 
L 293.253564 332.783994 
L 298.377531 331.909181 
L 303.501498 331.031368 
L 308.625465 330.150452 
L 313.749432 329.266329 
L 318.873399 328.378895 
L 323.997366 327.488044 
L 329.121333 326.593672 
L 334.2453 325.863733 
L 339.369267 325.072782 
L 344.493233 324.129268 
L 349.6172 323.181672 
L 354.741167 322.229879 
L 359.865134 321.273775 
L 364.989101 320.399633 
L 370.113068 319.168629 
L 375.237035 317.1957 
L 380.361002 315.213797 
L 385.484969 313.222679 
L 390.608936 311.222102 
L 395.732903 309.21182 
L 400.85687 307.191586 
L 405.980837 305.16115 
L 411.104804 303.12026 
L 416.228771 301.988098 
L 421.352738 300.283281 
L 426.476705 298.569001 
L 431.600671 296.845045 
L 436.724638 295.111196 
L 441.848605 293.367237 
L 446.972572 291.922822 
L 452.096539 288.015421 
L 457.220506 284.009653 
L 462.344473 279.980916 
L 467.46844 275.928692 
L 472.592407 271.85246 
L 477.716374 267.751693 
L 482.840341 263.62586 
L 487.964308 259.474425 
L 493.088275 256.440512 
L 498.212242 253.692733 
L 503.336209 250.603839 
L 508.460176 247.494066 
L 513.584143 244.363007 
L 518.70811 241.210251 
L 523.832076 238.417666 
L 528.956043 234.111465 
L 534.08001 227.55398 
L 539.203977 220.95168 
L 544.327944 214.303674 
L 549.451911 207.609065 
L 554.575878 200.866947 
L 559.699845 194.076404 
L 564.823812 187.236512 
L 569.947779 180.34634 
L 575.071746 173.636667 
L 580.195713 167.697239 
L 585.31968 161.712116 
L 590.443647 155.68048 
L 595.567614 149.601505 
" clip-path="url(#p2ae1fa5134)" style="fill: none; stroke: #ff7f0e; stroke-width: 1.5; stroke-linecap: square"/>
   </g>
   <g id="line2d_28">
    <path d="M 88.294886 337.941324 
L 93.418853 338.054311 
L 98.54282 338.167169 
L 103.666787 338.279909 
L 108.790754 338.392544 
L 113.914721 338.505086 
L 119.038688 338.617549 
L 124.162655 338.729945 
L 129.286622 338.740532 
L 134.410589 338.733422 
L 139.534556 338.726194 
L 144.658523 338.718848 
L 149.78249 338.711383 
L 154.906457 338.703797 
L 160.030424 338.696091 
L 165.15439 338.688263 
L 170.278357 338.680313 
L 175.402324 338.669455 
L 180.526291 338.652647 
L 185.650258 338.630037 
L 190.774225 338.607281 
L 195.898192 338.591807 
L 201.022159 338.593254 
L 206.146126 338.601968 
L 211.270093 338.6041 
L 216.39406 338.537016 
L 221.518027 338.469689 
L 226.641994 338.402114 
L 231.765961 338.334281 
L 236.889928 338.266183 
L 242.013895 338.197812 
L 247.137862 338.129161 
L 252.261829 338.066133 
L 257.385795 338.054557 
L 262.509762 338.057779 
L 267.633729 338.062029 
L 272.757696 338.066158 
L 277.881663 338.070168 
L 283.00563 338.074058 
L 288.129597 338.075097 
L 293.253564 337.869944 
L 298.377531 337.592042 
L 303.501498 337.313149 
L 308.625465 337.033235 
L 313.749432 336.752265 
L 318.873399 336.470207 
L 323.997366 336.187027 
L 329.121333 335.902692 
L 334.2453 335.628184 
L 339.369267 335.285105 
L 344.493233 334.853765 
L 349.6172 334.420596 
L 354.741167 333.985547 
L 359.865134 333.548565 
L 364.989101 333.158108 
L 370.113068 332.550174 
L 375.237035 331.200798 
L 380.361002 329.845487 
L 385.484969 328.484075 
L 390.608936 327.116394 
L 395.732903 325.742277 
L 400.85687 324.361554 
L 405.980837 322.974054 
L 411.104804 321.643081 
L 416.228771 320.626923 
L 421.352738 318.968622 
L 426.476705 317.295928 
L 431.600671 315.61433 
L 436.724638 313.923617 
L 441.848605 312.223576 
L 446.972572 311.231668 
L 452.096539 308.794516 
L 457.220506 305.986933 
L 462.344473 303.163389 
L 467.46844 300.323519 
L 472.592407 297.466959 
L 477.716374 294.593339 
L 482.840341 291.702286 
L 487.964308 288.793424 
L 493.088275 285.784649 
L 498.212242 281.830434 
L 503.336209 277.034459 
L 508.460176 272.208138 
L 513.584143 267.35083 
L 518.70811 262.461891 
L 523.832076 258.510107 
L 528.956043 253.144034 
L 534.08001 243.106991 
L 539.203977 233.003282 
L 544.327944 222.831536 
L 549.451911 212.590369 
L 554.575878 202.278385 
L 559.699845 191.894173 
L 564.823812 181.436312 
L 569.947779 170.903364 
L 575.071746 160.315678 
L 580.195713 150.036351 
L 585.31968 139.680424 
L 590.443647 129.24646 
L 595.567614 118.733011 
" clip-path="url(#p2ae1fa5134)" style="fill: none; stroke-dasharray: 5.55,2.4; stroke-dashoffset: 0; stroke: #ff7f0e; stroke-width: 1.5"/>
   </g>
   <g id="line2d_29">
    <path d="M 88.294886 336.936428 
L 93.418853 337.100148 
L 98.54282 337.263747 
L 103.666787 337.427241 
L 108.790754 337.590641 
L 113.914721 337.753963 
L 119.038688 337.917218 
L 124.162655 338.080421 
L 129.286622 338.089249 
L 134.410589 338.027152 
L 139.534556 337.964921 
L 144.658523 337.902551 
L 149.78249 337.840037 
L 154.906457 337.777374 
L 160.030424 337.714557 
L 165.15439 337.65158 
L 170.278357 337.588438 
L 175.402324 337.557886 
L 180.526291 337.530611 
L 185.650258 337.46855 
L 190.774225 337.406308 
L 195.898192 337.298805 
L 201.022159 337.140356 
L 206.146126 336.978742 
L 211.270093 336.760703 
L 216.39406 336.466513 
L 221.518027 336.171777 
L 226.641994 335.876469 
L 231.765961 335.580566 
L 236.889928 335.284043 
L 242.013895 334.986876 
L 247.137862 334.68904 
L 252.261829 334.390509 
L 257.385795 334.023583 
L 262.509762 333.355691 
L 267.633729 332.686335 
L 272.757696 332.015457 
L 277.881663 331.343002 
L 283.00563 330.668913 
L 288.129597 330.157267 
L 293.253564 328.993831 
L 298.377531 327.756156 
L 303.501498 326.515347 
L 308.625465 325.2713 
L 313.749432 324.02391 
L 318.873399 322.773072 
L 323.997366 321.518682 
L 329.121333 320.260633 
L 334.2453 319.236832 
L 339.369267 318.127856 
L 344.493233 316.804326 
L 349.6172 315.476574 
L 354.741167 314.144486 
L 359.865134 312.80795 
L 364.989101 311.588833 
L 370.113068 309.867702 
L 375.237035 307.102285 
L 380.361002 304.327623 
L 385.484969 301.543478 
L 390.608936 298.749614 
L 395.732903 295.945791 
L 400.85687 293.131771 
L 405.980837 290.307313 
L 411.104804 287.472176 
L 416.228771 285.916852 
L 421.352738 283.560697 
L 426.476705 281.194935 
L 431.600671 278.819364 
L 436.724638 276.433781 
L 441.848605 274.037982 
L 446.972572 272.065048 
L 452.096539 266.654154 
L 457.220506 261.114378 
L 462.344473 255.551384 
L 467.46844 249.964692 
L 472.592407 244.353816 
L 477.716374 238.718273 
L 482.840341 233.057574 
L 487.964308 227.371229 
L 493.088275 223.24722 
L 498.212242 219.528192 
L 503.336209 215.3435 
L 508.460176 211.138132 
L 513.584143 206.911726 
L 518.70811 202.663922 
L 523.832076 198.922698 
L 528.956043 193.099404 
L 534.08001 184.181876 
L 539.203977 175.220079 
L 544.327944 166.213229 
L 549.451911 157.160541 
L 554.575878 148.061224 
L 559.699845 138.914485 
L 564.823812 129.719525 
L 569.947779 120.475543 
L 575.071746 111.499091 
L 580.195713 103.596625 
L 585.31968 95.65004 
L 590.443647 87.658652 
L 595.567614 79.621771 
" clip-path="url(#p2ae1fa5134)" style="fill: none; stroke: #2ca02c; stroke-width: 1.5; stroke-linecap: square"/>
   </g>
   <g id="line2d_30">
    <path d="M 88.294886 336.280585 
L 93.418853 336.44242 
L 98.54282 336.604116 
L 103.666787 336.765688 
L 108.790754 336.927149 
L 113.914721 337.088511 
L 119.038688 337.249789 
L 124.162655 337.410995 
L 129.286622 337.426467 
L 134.410589 337.416644 
L 139.534556 337.406696 
L 144.658523 337.396622 
L 149.78249 337.386423 
L 154.906457 337.376096 
L 160.030424 337.365642 
L 165.15439 337.355059 
L 170.278357 337.344346 
L 175.402324 337.329521 
L 180.526291 337.306237 
L 185.650258 337.27471 
L 190.774225 337.243027 
L 195.898192 337.221809 
L 201.022159 337.22482 
L 206.146126 337.238254 
L 211.270093 337.242328 
L 216.39406 337.147616 
L 221.518027 337.052649 
L 226.641994 336.957421 
L 231.765961 336.861922 
L 236.889928 336.766146 
L 242.013895 336.670083 
L 247.137862 336.573727 
L 252.261829 336.485493 
L 257.385795 336.470666 
L 262.509762 336.476975 
L 267.633729 336.484796 
L 272.757696 336.492493 
L 277.881663 336.500067 
L 283.00563 336.507519 
L 288.129597 336.510966 
L 293.253564 336.221445 
L 298.377531 335.82886 
L 303.501498 335.435243 
L 308.625465 335.040561 
L 313.749432 334.644779 
L 318.873399 334.247866 
L 323.997366 333.849787 
L 329.121333 333.450509 
L 334.2453 333.0656 
L 339.369267 332.584074 
L 344.493233 331.978224 
L 349.6172 331.370482 
L 354.741167 330.760795 
L 359.865134 330.149113 
L 364.989101 329.603879 
L 370.113068 328.752435 
L 375.237035 326.856254 
L 380.361002 324.953947 
L 385.484969 323.04535 
L 390.608936 321.1303 
L 395.732903 319.208634 
L 400.85687 317.280187 
L 405.980837 315.344793 
L 411.104804 313.491453 
L 416.228771 312.082671 
L 421.352738 309.775102 
L 426.476705 307.450665 
L 431.600671 305.117162 
L 436.724638 302.774392 
L 441.848605 300.422155 
L 446.972572 299.063743 
L 452.096539 295.688286 
L 457.220506 291.800876 
L 462.344473 287.897318 
L 467.46844 283.977272 
L 472.592407 280.040401 
L 477.716374 276.086362 
L 482.840341 272.114813 
L 487.964308 268.12541 
L 493.088275 264.004296 
L 498.212242 258.578479 
L 503.336209 251.995039 
L 508.460176 245.38128 
L 513.584143 238.736626 
L 518.70811 232.060495 
L 523.832076 226.692151 
L 528.956043 219.381357 
L 534.08001 205.640186 
L 539.203977 191.832842 
L 544.327944 177.958107 
L 549.451911 164.014758 
L 554.575878 150.001566 
L 559.699845 135.917296 
L 564.823812 121.76071 
L 569.947779 107.53056 
L 575.071746 93.255452 
L 580.195713 79.432837 
L 585.31968 65.535724 
L 590.443647 51.562894 
L 595.567614 37.513125 
" clip-path="url(#p2ae1fa5134)" style="fill: none; stroke-dasharray: 5.55,2.4; stroke-dashoffset: 0; stroke: #2ca02c; stroke-width: 1.5"/>
   </g>
   <g id="line2d_31">
    <path d="M 88.294886 339.330286 
L 93.418853 339.413154 
L 98.54282 339.495932 
L 103.666787 339.578631 
L 108.790754 339.661261 
L 113.914721 339.743832 
L 119.038688 339.826354 
L 124.162655 339.908837 
L 129.286622 339.913125 
L 134.410589 339.881465 
L 139.534556 339.849706 
L 144.658523 339.817842 
L 149.78249 339.785871 
L 154.906457 339.753789 
L 160.030424 339.721591 
L 165.15439 339.689273 
L 170.278357 339.656832 
L 175.402324 339.640879 
L 180.526291 339.626553 
L 185.650258 339.594541 
L 190.774225 339.562392 
L 195.898192 339.507219 
L 201.022159 339.426112 
L 206.146126 339.34332 
L 211.270093 339.231774 
L 216.39406 339.081415 
L 221.518027 338.930644 
L 226.641994 338.779443 
L 231.765961 338.627791 
L 236.889928 338.475671 
L 242.013895 338.323063 
L 247.137862 338.169948 
L 252.261829 338.016306 
L 257.385795 337.827611 
L 262.509762 337.485181 
L 267.633729 337.141638 
L 272.757696 336.796939 
L 277.881663 336.451039 
L 283.00563 336.103894 
L 288.129597 335.839383 
L 293.253564 335.24107 
L 298.377531 334.604032 
L 303.501498 333.964598 
L 308.625465 333.322683 
L 313.749432 332.678203 
L 318.873399 332.031074 
L 323.997366 331.381208 
L 329.121333 330.728521 
L 334.2453 330.195262 
L 339.369267 329.617348 
L 344.493233 328.92808 
L 349.6172 328.235531 
L 354.741167 327.539607 
L 359.865134 326.840214 
L 364.989101 326.200212 
L 370.113068 325.299767 
L 375.237035 323.857973 
L 380.361002 322.408953 
L 385.484969 320.952502 
L 390.608936 319.488419 
L 395.732903 318.016497 
L 400.85687 316.53653 
L 405.980837 315.048307 
L 411.104804 313.551616 
L 416.228771 312.717788 
L 421.352738 311.465041 
L 426.476705 310.204599 
L 431.600671 308.936279 
L 436.724638 307.659896 
L 441.848605 306.375263 
L 446.972572 305.308876 
L 452.096539 302.439435 
L 457.220506 299.496163 
L 462.344473 296.534151 
L 467.46844 293.552954 
L 472.592407 290.55212 
L 477.716374 287.531194 
L 482.840341 284.489714 
L 487.964308 281.427213 
L 493.088275 279.18213 
L 498.212242 277.14517 
L 503.336209 274.856085 
L 508.460176 272.549716 
L 513.584143 270.225699 
L 518.70811 267.883666 
L 523.832076 265.804242 
L 528.956043 262.609826 
L 534.08001 257.756488 
L 539.203977 252.865964 
L 544.327944 247.937452 
L 549.451911 242.970144 
L 554.575878 237.963215 
L 559.699845 232.915835 
L 564.823812 227.827157 
L 569.947779 222.696326 
L 575.071746 217.693481 
L 580.195713 213.254083 
L 585.31968 208.776076 
L 590.443647 204.258692 
L 595.567614 199.70115 
" clip-path="url(#p2ae1fa5134)" style="fill: none; stroke: #d62728; stroke-width: 1.5; stroke-linecap: square"/>
   </g>
   <g id="line2d_32">
    <path d="M 88.294886 338.998266 
L 93.418853 339.080177 
L 98.54282 339.161985 
L 103.666787 339.243701 
L 108.790754 339.325333 
L 113.914721 339.406893 
L 119.038688 339.488389 
L 124.162655 339.569832 
L 129.286622 339.577452 
L 134.410589 339.572233 
L 139.534556 339.566921 
L 144.658523 339.561515 
L 149.78249 339.556015 
L 154.906457 339.550419 
L 160.030424 339.544728 
L 165.15439 339.53894 
L 170.278357 339.533055 
L 175.402324 339.525052 
L 180.526291 339.512725 
L 185.650258 339.496179 
L 190.774225 339.479517 
L 195.898192 339.468128 
L 201.022159 339.469007 
L 206.146126 339.475151 
L 211.270093 339.476512 
L 216.39406 339.427629 
L 221.518027 339.378553 
L 226.641994 339.329279 
L 231.765961 339.279801 
L 236.889928 339.230111 
L 242.013895 339.180204 
L 247.137862 339.130073 
L 252.261829 339.084005 
L 257.385795 339.07529 
L 262.509762 339.077312 
L 267.633729 339.080072 
L 272.757696 339.082734 
L 277.881663 339.0853 
L 283.00563 339.08777 
L 288.129597 339.088157 
L 293.253564 338.938629 
L 298.377531 338.73615 
L 303.501498 338.53288 
L 308.625465 338.328792 
L 313.749432 338.12386 
L 318.873399 337.918056 
L 323.997366 337.711353 
L 329.121333 337.503725 
L 334.2453 337.303161 
L 339.369267 337.052584 
L 344.493233 336.737626 
L 349.6172 336.4212 
L 354.741167 336.103262 
L 359.865134 335.783769 
L 364.989101 335.49803 
L 370.113068 335.053629 
L 375.237035 334.068464 
L 380.361002 333.078523 
L 385.484969 332.083669 
L 390.608936 331.083762 
L 395.732903 330.078663 
L 400.85687 329.068229 
L 405.980837 328.052318 
L 411.104804 327.077134 
L 416.228771 326.331345 
L 421.352738 325.115982 
L 426.476705 323.889406 
L 431.600671 322.655601 
L 436.724638 321.41439 
L 441.848605 320.165589 
L 446.972572 319.434022 
L 452.096539 317.644387 
L 457.220506 315.582473 
L 462.344473 313.507544 
L 467.46844 311.419288 
L 472.592407 309.317388 
L 477.716374 307.201525 
L 482.840341 305.071375 
L 487.964308 302.926612 
L 493.088275 300.706956 
L 498.212242 297.791867 
L 503.336209 294.256704 
L 508.460176 290.696573 
L 513.584143 287.110911 
L 518.70811 283.499147 
L 523.832076 280.573295 
L 528.956043 276.604961 
L 534.08001 269.197298 
L 539.203977 261.734511 
L 544.327944 254.215378 
L 549.451911 246.638659 
L 554.575878 239.003095 
L 559.699845 231.307415 
L 564.823812 223.550325 
L 569.947779 215.730517 
L 575.071746 207.862751 
L 580.195713 200.214861 
L 585.31968 192.502609 
L 590.443647 184.724661 
L 595.567614 176.879667 
" clip-path="url(#p2ae1fa5134)" style="fill: none; stroke-dasharray: 5.55,2.4; stroke-dashoffset: 0; stroke: #d62728; stroke-width: 1.5"/>
   </g>
   <g id="line2d_33">
    <path d="M 88.294886 337.42126 
L 93.418853 337.568578 
L 98.54282 337.715733 
L 103.666787 337.862743 
L 108.790754 338.009627 
L 113.914721 338.156402 
L 119.038688 338.303088 
L 124.162655 338.449702 
L 129.286622 338.457298 
L 134.410589 338.400979 
L 139.534556 338.344477 
L 144.658523 338.287785 
L 149.78249 338.230896 
L 154.906457 338.173802 
L 160.030424 338.116497 
L 165.15439 338.058972 
L 170.278357 338.00122 
L 175.402324 337.972778 
L 180.526291 337.947222 
L 185.650258 337.89021 
L 190.774225 337.832946 
L 195.898192 337.73473 
L 201.022159 337.590383 
L 206.146126 337.443025 
L 211.270093 337.244514 
L 216.39406 336.976954 
L 221.518027 336.708634 
L 226.641994 336.439519 
L 231.765961 336.169572 
L 236.889928 335.898759 
L 242.013895 335.627041 
L 247.137862 335.354383 
L 252.261829 335.080748 
L 257.385795 334.744709 
L 262.509762 334.135096 
L 267.633729 333.523418 
L 272.757696 332.909591 
L 277.881663 332.293529 
L 283.00563 331.675148 
L 288.129597 331.20372 
L 293.253564 330.138083 
L 298.377531 329.003329 
L 303.501498 327.864096 
L 308.625465 326.720222 
L 313.749432 325.571541 
L 318.873399 324.417887 
L 323.997366 323.259089 
L 329.121333 322.094978 
L 334.2453 321.143268 
L 339.369267 320.111736 
L 344.493233 318.881523 
L 349.6172 317.64509 
L 354.741167 316.402246 
L 359.865134 315.152799 
L 364.989101 314.008756 
L 370.113068 312.400029 
L 375.237035 309.825614 
L 380.361002 307.237409 
L 385.484969 304.634998 
L 390.608936 302.017956 
L 395.732903 299.385856 
L 400.85687 296.73826 
L 405.980837 294.074724 
L 411.104804 291.394797 
L 416.228771 289.896804 
L 421.352738 287.649886 
L 426.476705 285.387911 
L 431.600671 283.110477 
L 436.724638 280.817174 
L 441.848605 278.507583 
L 446.972572 276.586462 
L 452.096539 271.440181 
L 457.220506 266.158621 
L 462.344473 260.840051 
L 467.46844 255.483461 
L 472.592407 250.087822 
L 477.716374 244.652081 
L 482.840341 239.175166 
L 487.964308 233.655979 
L 493.088275 229.596786 
L 498.212242 225.906576 
L 503.336209 221.760176 
L 508.460176 217.578189 
L 513.584143 213.359702 
L 518.70811 209.103784 
L 523.832076 205.314185 
L 528.956043 199.515848 
L 534.08001 190.728051 
L 539.203977 181.863043 
L 544.327944 172.918766 
L 549.451911 163.893111 
L 554.575878 154.78391 
L 559.699845 145.588941 
L 564.823812 136.30592 
L 569.947779 126.932503 
L 575.071746 117.774982 
L 580.195713 109.619605 
L 585.31968 101.379357 
L 590.443647 93.051979 
L 595.567614 84.635144 
" clip-path="url(#p2ae1fa5134)" style="fill: none; stroke: #9467bd; stroke-width: 1.5; stroke-linecap: square"/>
   </g>
   <g id="line2d_34">
    <path d="M 88.294886 336.831002 
L 93.418853 336.976619 
L 98.54282 337.122048 
L 103.666787 337.267308 
L 108.790754 337.412416 
L 113.914721 337.55739 
L 119.038688 337.702249 
L 124.162655 337.847011 
L 129.286622 337.860525 
L 134.410589 337.851208 
L 139.534556 337.84172 
L 144.658523 337.83206 
L 149.78249 337.822228 
L 154.906457 337.812221 
L 160.030424 337.802038 
L 165.15439 337.791677 
L 170.278357 337.781138 
L 175.402324 337.766828 
L 180.526291 337.744821 
L 185.650258 337.715306 
L 190.774225 337.685576 
L 195.898192 337.665215 
L 201.022159 337.666663 
L 206.146126 337.677468 
L 211.270093 337.679758 
L 216.39406 337.592685 
L 221.518027 337.505255 
L 226.641994 337.417457 
L 231.765961 337.32928 
L 236.889928 337.240711 
L 242.013895 337.151738 
L 247.137862 337.062349 
L 252.261829 336.980169 
L 257.385795 336.964422 
L 262.509762 336.967766 
L 267.633729 336.972408 
L 272.757696 336.976866 
L 277.881663 336.981139 
L 283.00563 336.985228 
L 288.129597 336.985597 
L 293.253564 336.719128 
L 298.377531 336.358352 
L 303.501498 335.996096 
L 308.625465 335.632309 
L 313.749432 335.266937 
L 318.873399 334.899927 
L 323.997366 334.531225 
L 329.121333 334.160776 
L 334.2453 333.802807 
L 339.369267 333.355647 
L 344.493233 332.793666 
L 349.6172 332.228903 
L 354.741167 331.661273 
L 359.865134 331.090687 
L 364.989101 330.580063 
L 370.113068 329.78643 
L 375.237035 328.028466 
L 380.361002 326.261416 
L 385.484969 324.484996 
L 390.608936 322.698921 
L 395.732903 320.902898 
L 400.85687 319.096631 
L 405.980837 317.27982 
L 411.104804 315.534882 
L 416.228771 314.198607 
L 421.352738 312.023202 
L 426.476705 309.826675 
L 431.600671 307.616071 
L 436.724638 305.390998 
L 441.848605 303.151056 
L 446.972572 301.834255 
L 452.096539 298.624759 
L 457.220506 294.926321 
L 462.344473 291.202217 
L 467.46844 287.451743 
L 472.592407 283.67418 
L 477.716374 279.868791 
L 482.840341 276.034829 
L 487.964308 272.171527 
L 493.088275 268.170673 
L 498.212242 262.919526 
L 503.336209 256.551713 
L 508.460176 250.133365 
L 513.584143 243.663125 
L 518.70811 237.139599 
L 523.832076 231.841264 
L 528.956043 224.663616 
L 534.08001 211.295071 
L 539.203977 197.813253 
L 544.327944 184.215076 
L 549.451911 170.497379 
L 554.575878 156.656917 
L 559.699845 142.690361 
L 564.823812 128.594293 
L 569.947779 114.365205 
L 575.071746 100.028531 
L 580.195713 86.066839 
L 585.31968 71.966017 
L 590.443647 57.722283 
L 595.567614 43.331747 
" clip-path="url(#p2ae1fa5134)" style="fill: none; stroke-dasharray: 5.55,2.4; stroke-dashoffset: 0; stroke: #9467bd; stroke-width: 1.5"/>
   </g>
   <g id="line2d_35">
    <path d="M 88.294886 336.330388 
L 93.418853 336.514645 
L 98.54282 336.698902 
L 103.666787 336.883159 
L 108.790754 337.067416 
L 113.914721 337.251673 
L 119.038688 337.43593 
L 124.162655 337.620187 
L 129.286622 337.630968 
L 134.410589 337.562158 
L 139.534556 337.493347 
L 144.658523 337.424536 
L 149.78249 337.355725 
L 154.906457 337.286914 
L 160.030424 337.218103 
L 165.15439 337.149292 
L 170.278357 337.080481 
L 175.402324 337.048378 
L 180.526291 337.020106 
L 185.650258 336.953053 
L 190.774225 336.886001 
L 195.898192 336.768547 
L 201.022159 336.594432 
L 206.146126 336.417137 
L 211.270093 336.177236 
L 216.39406 335.852869 
L 221.518027 335.528501 
L 226.641994 335.204133 
L 231.765961 334.879765 
L 236.889928 334.555397 
L 242.013895 334.231029 
L 247.137862 333.906661 
L 252.261829 333.582293 
L 257.385795 333.182917 
L 262.509762 332.451243 
L 267.633729 331.719569 
L 272.757696 330.987895 
L 277.881663 330.256221 
L 283.00563 329.524546 
L 288.129597 328.973711 
L 293.253564 327.707047 
L 298.377531 326.361925 
L 303.501498 325.016802 
L 308.625465 323.67168 
L 313.749432 322.326558 
L 318.873399 320.981435 
L 323.997366 319.636313 
L 329.121333 318.291191 
L 334.2453 317.205524 
L 339.369267 316.03066 
L 344.493233 314.626395 
L 349.6172 313.22213 
L 354.741167 311.817866 
L 359.865134 310.413601 
L 364.989101 309.141203 
L 370.113068 307.331555 
L 375.237035 304.402716 
L 380.361002 301.473876 
L 385.484969 298.545036 
L 390.608936 295.616196 
L 395.732903 292.687357 
L 400.85687 289.758517 
L 405.980837 286.829677 
L 411.104804 283.900838 
L 416.228771 282.345248 
L 421.352738 279.946194 
L 426.476705 277.547139 
L 431.600671 275.148085 
L 436.724638 272.749031 
L 441.848605 270.349976 
L 446.972572 268.40694 
L 452.096539 262.861842 
L 457.220506 257.205031 
L 462.344473 251.54822 
L 467.46844 245.89141 
L 472.592407 240.234599 
L 477.716374 234.577788 
L 482.840341 228.920978 
L 487.964308 223.264167 
L 493.088275 219.249404 
L 498.212242 215.672902 
L 503.336209 211.636032 
L 508.460176 207.599162 
L 513.584143 203.562293 
L 518.70811 199.525423 
L 523.832076 196.027605 
L 528.956043 190.430423 
L 534.08001 181.720675 
L 539.203977 173.010926 
L 544.327944 164.301177 
L 549.451911 155.591428 
L 554.575878 146.88168 
L 559.699845 138.171931 
L 564.823812 129.462182 
L 569.947779 120.752433 
L 575.071746 112.358854 
L 580.195713 105.081299 
L 585.31968 97.803744 
L 590.443647 90.52619 
L 595.567614 83.248635 
" clip-path="url(#p2ae1fa5134)" style="fill: none; stroke: #8c564b; stroke-width: 1.5; stroke-linecap: square"/>
   </g>
   <g id="line2d_36">
    <path d="M 88.294886 335.592565 
L 93.418853 335.774712 
L 98.54282 335.956858 
L 103.666787 336.139005 
L 108.790754 336.321151 
L 113.914721 336.503298 
L 119.038688 336.685444 
L 124.162655 336.867591 
L 129.286622 336.885995 
L 134.410589 336.876101 
L 139.534556 336.866206 
L 144.658523 336.856312 
L 149.78249 336.846418 
L 154.906457 336.836524 
L 160.030424 336.82663 
L 165.15439 336.816736 
L 170.278357 336.806842 
L 175.402324 336.792486 
L 180.526291 336.768806 
L 185.650258 336.736062 
L 190.774225 336.703317 
L 195.898192 336.682449 
L 201.022159 336.688824 
L 206.146126 336.706975 
L 211.270093 336.714794 
L 216.39406 336.61256 
L 221.518027 336.510326 
L 226.641994 336.408092 
L 231.765961 336.305858 
L 236.889928 336.203624 
L 242.013895 336.10139 
L 247.137862 335.999156 
L 252.261829 335.906265 
L 257.385795 335.89506 
L 262.509762 335.907444 
L 267.633729 335.921641 
L 272.757696 335.935838 
L 277.881663 335.950035 
L 283.00563 335.964232 
L 288.129597 335.97415 
L 293.253564 335.661769 
L 298.377531 335.236935 
L 303.501498 334.812101 
L 308.625465 334.387267 
L 313.749432 333.962433 
L 318.873399 333.537599 
L 323.997366 333.112765 
L 329.121333 332.687932 
L 334.2453 332.280104 
L 339.369267 331.768429 
L 344.493233 331.123237 
L 349.6172 330.478045 
L 354.741167 329.832853 
L 359.865134 329.187661 
L 364.989101 328.616518 
L 370.113068 327.71688 
L 375.237035 325.694269 
L 380.361002 323.671658 
L 385.484969 321.649047 
L 390.608936 319.626436 
L 395.732903 317.603825 
L 400.85687 315.581214 
L 405.980837 313.558603 
L 411.104804 311.63102 
L 416.228771 310.183834 
L 421.352738 307.787968 
L 426.476705 305.38359 
L 431.600671 302.979211 
L 436.724638 300.574832 
L 441.848605 298.170453 
L 446.972572 296.822223 
L 452.096539 293.361509 
L 457.220506 289.37862 
L 462.344473 285.395731 
L 467.46844 281.412842 
L 472.592407 277.429953 
L 477.716374 273.447064 
L 482.840341 269.464175 
L 487.964308 265.481286 
L 493.088275 261.381059 
L 498.212242 255.954617 
L 503.336209 249.362255 
L 508.460176 242.769893 
L 513.584143 236.177531 
L 518.70811 229.585169 
L 523.832076 224.359805 
L 528.956043 217.184151 
L 534.08001 203.514088 
L 539.203977 189.844025 
L 544.327944 176.173962 
L 549.451911 162.503899 
L 554.575878 148.833835 
L 559.699845 135.163772 
L 564.823812 121.493709 
L 569.947779 107.823646 
L 575.071746 94.183327 
L 580.195713 81.068129 
L 585.31968 67.952932 
L 590.443647 54.837734 
L 595.567614 41.722536 
" clip-path="url(#p2ae1fa5134)" style="fill: none; stroke-dasharray: 5.55,2.4; stroke-dashoffset: 0; stroke: #8c564b; stroke-width: 1.5"/>
   </g>
   <g id="patch_3">
    <path d="M 62.93125 355.033125 
L 62.93125 22.393125 
" style="fill: none; stroke: #000000; stroke-width: 0.8; stroke-linejoin: miter; stroke-linecap: square"/>
   </g>
   <g id="patch_4">
    <path d="M 620.93125 355.033125 
L 620.93125 22.393125 
" style="fill: none; stroke: #000000; stroke-width: 0.8; stroke-linejoin: miter; stroke-linecap: square"/>
   </g>
   <g id="patch_5">
    <path d="M 62.93125 355.033125 
L 620.93125 355.033125 
" style="fill: none; stroke: #000000; stroke-width: 0.8; stroke-linejoin: miter; stroke-linecap: square"/>
   </g>
   <g id="patch_6">
    <path d="M 62.93125 22.393125 
L 620.93125 22.393125 
" style="fill: none; stroke: #000000; stroke-width: 0.8; stroke-linejoin: miter; stroke-linecap: square"/>
   </g>
   <g id="text_15">
    <!-- dα/dβ * R(β) vs Angle of Incidence for Different Lens Designs and Polarizations -->
    <g transform="translate(105.965312 16.393125) scale(0.12 -0.12)">
     <defs>
      <path id="DejaVuSans-76" d="M 191 3500 
L 800 3500 
L 1894 563 
L 2988 3500 
L 3597 3500 
L 2284 0 
L 1503 0 
L 191 3500 
z
" transform="scale(0.015625)"/>
      <path id="DejaVuSans-44" d="M 1259 4147 
L 1259 519 
L 2022 519 
Q 2988 519 3436 956 
Q 3884 1394 3884 2338 
Q 3884 3275 3436 3711 
Q 2988 4147 2022 4147 
L 1259 4147 
z
M 628 4666 
L 1925 4666 
Q 3281 4666 3915 4102 
Q 4550 3538 4550 2338 
Q 4550 1131 3912 565 
Q 3275 0 1925 0 
L 628 0 
L 628 4666 
z
" transform="scale(0.015625)"/>
      <path id="DejaVuSans-74" d="M 1172 4494 
L 1172 3500 
L 2356 3500 
L 2356 3053 
L 1172 3053 
L 1172 1153 
Q 1172 725 1289 603 
Q 1406 481 1766 481 
L 2356 481 
L 2356 0 
L 1766 0 
Q 1100 0 847 248 
Q 594 497 594 1153 
L 594 3053 
L 172 3053 
L 172 3500 
L 594 3500 
L 594 4494 
L 1172 4494 
z
" transform="scale(0.015625)"/>
      <path id="DejaVuSans-4c" d="M 628 4666 
L 1259 4666 
L 1259 531 
L 3531 531 
L 3531 0 
L 628 0 
L 628 4666 
z
" transform="scale(0.015625)"/>
      <path id="DejaVuSans-61" d="M 2194 1759 
Q 1497 1759 1228 1600 
Q 959 1441 959 1056 
Q 959 750 1161 570 
Q 1363 391 1709 391 
Q 2188 391 2477 730 
Q 2766 1069 2766 1631 
L 2766 1759 
L 2194 1759 
z
M 3341 1997 
L 3341 0 
L 2766 0 
L 2766 531 
Q 2569 213 2275 61 
Q 1981 -91 1556 -91 
Q 1019 -91 701 211 
Q 384 513 384 1019 
Q 384 1609 779 1909 
Q 1175 2209 1959 2209 
L 2766 2209 
L 2766 2266 
Q 2766 2663 2505 2880 
Q 2244 3097 1772 3097 
Q 1472 3097 1187 3025 
Q 903 2953 641 2809 
L 641 3341 
Q 956 3463 1253 3523 
Q 1550 3584 1831 3584 
Q 2591 3584 2966 3190 
Q 3341 2797 3341 1997 
z
" transform="scale(0.015625)"/>
      <path id="DejaVuSans-50" d="M 1259 4147 
L 1259 2394 
L 2053 2394 
Q 2494 2394 2734 2622 
Q 2975 2850 2975 3272 
Q 2975 3691 2734 3919 
Q 2494 4147 2053 4147 
L 1259 4147 
z
M 628 4666 
L 2053 4666 
Q 2838 4666 3239 4311 
Q 3641 3956 3641 3272 
Q 3641 2581 3239 2228 
Q 2838 1875 2053 1875 
L 1259 1875 
L 1259 0 
L 628 0 
L 628 4666 
z
" transform="scale(0.015625)"/>
      <path id="DejaVuSans-7a" d="M 353 3500 
L 3084 3500 
L 3084 2975 
L 922 459 
L 3084 459 
L 3084 0 
L 275 0 
L 275 525 
L 2438 3041 
L 353 3041 
L 353 3500 
z
" transform="scale(0.015625)"/>
     </defs>
     <use xlink:href="#DejaVuSans-64"/>
     <use xlink:href="#DejaVuSans-3b1" x="63.476562"/>
     <use xlink:href="#DejaVuSans-2f" x="129.394531"/>
     <use xlink:href="#DejaVuSans-64" x="163.085938"/>
     <use xlink:href="#DejaVuSans-3b2" x="226.5625"/>
     <use xlink:href="#DejaVuSans-20" x="290.380859"/>
     <use xlink:href="#DejaVuSans-2a" x="322.167969"/>
     <use xlink:href="#DejaVuSans-20" x="372.167969"/>
     <use xlink:href="#DejaVuSans-52" x="403.955078"/>
     <use xlink:href="#DejaVuSans-28" x="473.4375"/>
     <use xlink:href="#DejaVuSans-3b2" x="512.451172"/>
     <use xlink:href="#DejaVuSans-29" x="576.269531"/>
     <use xlink:href="#DejaVuSans-20" x="615.283203"/>
     <use xlink:href="#DejaVuSans-76" x="647.070312"/>
     <use xlink:href="#DejaVuSans-73" x="706.25"/>
     <use xlink:href="#DejaVuSans-20" x="758.349609"/>
     <use xlink:href="#DejaVuSans-41" x="790.136719"/>
     <use xlink:href="#DejaVuSans-6e" x="858.544922"/>
     <use xlink:href="#DejaVuSans-67" x="921.923828"/>
     <use xlink:href="#DejaVuSans-6c" x="985.400391"/>
     <use xlink:href="#DejaVuSans-65" x="1013.183594"/>
     <use xlink:href="#DejaVuSans-20" x="1074.707031"/>
     <use xlink:href="#DejaVuSans-6f" x="1106.494141"/>
     <use xlink:href="#DejaVuSans-66" x="1167.675781"/>
     <use xlink:href="#DejaVuSans-20" x="1202.880859"/>
     <use xlink:href="#DejaVuSans-49" x="1234.667969"/>
     <use xlink:href="#DejaVuSans-6e" x="1264.160156"/>
     <use xlink:href="#DejaVuSans-63" x="1327.539062"/>
     <use xlink:href="#DejaVuSans-69" x="1382.519531"/>
     <use xlink:href="#DejaVuSans-64" x="1410.302734"/>
     <use xlink:href="#DejaVuSans-65" x="1473.779297"/>
     <use xlink:href="#DejaVuSans-6e" x="1535.302734"/>
     <use xlink:href="#DejaVuSans-63" x="1598.681641"/>
     <use xlink:href="#DejaVuSans-65" x="1653.662109"/>
     <use xlink:href="#DejaVuSans-20" x="1715.185547"/>
     <use xlink:href="#DejaVuSans-66" x="1746.972656"/>
     <use xlink:href="#DejaVuSans-6f" x="1782.177734"/>
     <use xlink:href="#DejaVuSans-72" x="1843.359375"/>
     <use xlink:href="#DejaVuSans-20" x="1884.472656"/>
     <use xlink:href="#DejaVuSans-44" x="1916.259766"/>
     <use xlink:href="#DejaVuSans-69" x="1993.261719"/>
     <use xlink:href="#DejaVuSans-66" x="2021.044922"/>
     <use xlink:href="#DejaVuSans-66" x="2056.25"/>
     <use xlink:href="#DejaVuSans-65" x="2091.455078"/>
     <use xlink:href="#DejaVuSans-72" x="2152.978516"/>
     <use xlink:href="#DejaVuSans-65" x="2191.841797"/>
     <use xlink:href="#DejaVuSans-6e" x="2253.365234"/>
     <use xlink:href="#DejaVuSans-74" x="2316.744141"/>
     <use xlink:href="#DejaVuSans-20" x="2355.953125"/>
     <use xlink:href="#DejaVuSans-4c" x="2387.740234"/>
     <use xlink:href="#DejaVuSans-65" x="2441.703125"/>
     <use xlink:href="#DejaVuSans-6e" x="2503.226562"/>
     <use xlink:href="#DejaVuSans-73" x="2566.605469"/>
     <use xlink:href="#DejaVuSans-20" x="2618.705078"/>
     <use xlink:href="#DejaVuSans-44" x="2650.492188"/>
     <use xlink:href="#DejaVuSans-65" x="2727.494141"/>
     <use xlink:href="#DejaVuSans-73" x="2789.017578"/>
     <use xlink:href="#DejaVuSans-69" x="2841.117188"/>
     <use xlink:href="#DejaVuSans-67" x="2868.900391"/>
     <use xlink:href="#DejaVuSans-6e" x="2932.376953"/>
     <use xlink:href="#DejaVuSans-73" x="2995.755859"/>
     <use xlink:href="#DejaVuSans-20" x="3047.855469"/>
     <use xlink:href="#DejaVuSans-61" x="3079.642578"/>
     <use xlink:href="#DejaVuSans-6e" x="3140.921875"/>
     <use xlink:href="#DejaVuSans-64" x="3204.300781"/>
     <use xlink:href="#DejaVuSans-20" x="3267.777344"/>
     <use xlink:href="#DejaVuSans-50" x="3299.564453"/>
     <use xlink:href="#DejaVuSans-6f" x="3356.242188"/>
     <use xlink:href="#DejaVuSans-6c" x="3417.423828"/>
     <use xlink:href="#DejaVuSans-61" x="3445.207031"/>
     <use xlink:href="#DejaVuSans-72" x="3506.486328"/>
     <use xlink:href="#DejaVuSans-69" x="3547.599609"/>
     <use xlink:href="#DejaVuSans-7a" x="3575.382812"/>
     <use xlink:href="#DejaVuSans-61" x="3627.873047"/>
     <use xlink:href="#DejaVuSans-74" x="3689.152344"/>
     <use xlink:href="#DejaVuSans-69" x="3728.361328"/>
     <use xlink:href="#DejaVuSans-6f" x="3756.144531"/>
     <use xlink:href="#DejaVuSans-6e" x="3817.326172"/>
     <use xlink:href="#DejaVuSans-73" x="3880.705078"/>
    </g>
   </g>
   <g id="legend_1">
    <g id="patch_7">
     <path d="M 69.93125 206.530625 
L 280.748438 206.530625 
Q 282.748438 206.530625 282.748438 204.530625 
L 282.748438 29.393125 
Q 282.748438 27.393125 280.748438 27.393125 
L 69.93125 27.393125 
Q 67.93125 27.393125 67.93125 29.393125 
L 67.93125 204.530625 
Q 67.93125 206.530625 69.93125 206.530625 
z
" style="fill: #ffffff; opacity: 0.8; stroke: #cccccc; stroke-linejoin: miter"/>
    </g>
    <g id="line2d_37">
     <path d="M 71.93125 35.491562 
L 81.93125 35.491562 
L 91.93125 35.491562 
" style="fill: none; stroke: #1f77b4; stroke-width: 1.5; stroke-linecap: square"/>
    </g>
    <g id="text_16">
     <!-- s-polarization, spherical -->
     <g transform="translate(99.93125 38.991562) scale(0.1 -0.1)">
      <defs>
       <path id="DejaVuSans-2d" d="M 313 2009 
L 1997 2009 
L 1997 1497 
L 313 1497 
L 313 2009 
z
" transform="scale(0.015625)"/>
       <path id="DejaVuSans-70" d="M 1159 525 
L 1159 -1331 
L 581 -1331 
L 581 3500 
L 1159 3500 
L 1159 2969 
Q 1341 3281 1617 3432 
Q 1894 3584 2278 3584 
Q 2916 3584 3314 3078 
Q 3713 2572 3713 1747 
Q 3713 922 3314 415 
Q 2916 -91 2278 -91 
Q 1894 -91 1617 61 
Q 1341 213 1159 525 
z
M 3116 1747 
Q 3116 2381 2855 2742 
Q 2594 3103 2138 3103 
Q 1681 3103 1420 2742 
Q 1159 2381 1159 1747 
Q 1159 1113 1420 752 
Q 1681 391 2138 391 
Q 2594 391 2855 752 
Q 3116 1113 3116 1747 
z
" transform="scale(0.015625)"/>
       <path id="DejaVuSans-2c" d="M 750 794 
L 1409 794 
L 1409 256 
L 897 -744 
L 494 -744 
L 750 256 
L 750 794 
z
" transform="scale(0.015625)"/>
       <path id="DejaVuSans-68" d="M 3513 2113 
L 3513 0 
L 2938 0 
L 2938 2094 
Q 2938 2591 2744 2837 
Q 2550 3084 2163 3084 
Q 1697 3084 1428 2787 
Q 1159 2491 1159 1978 
L 1159 0 
L 581 0 
L 581 4863 
L 1159 4863 
L 1159 2956 
Q 1366 3272 1645 3428 
Q 1925 3584 2291 3584 
Q 2894 3584 3203 3211 
Q 3513 2838 3513 2113 
z
" transform="scale(0.015625)"/>
      </defs>
      <use xlink:href="#DejaVuSans-73"/>
      <use xlink:href="#DejaVuSans-2d" x="52.099609"/>
      <use xlink:href="#DejaVuSans-70" x="88.183594"/>
      <use xlink:href="#DejaVuSans-6f" x="151.660156"/>
      <use xlink:href="#DejaVuSans-6c" x="212.841797"/>
      <use xlink:href="#DejaVuSans-61" x="240.625"/>
      <use xlink:href="#DejaVuSans-72" x="301.904297"/>
      <use xlink:href="#DejaVuSans-69" x="343.017578"/>
      <use xlink:href="#DejaVuSans-7a" x="370.800781"/>
      <use xlink:href="#DejaVuSans-61" x="423.291016"/>
      <use xlink:href="#DejaVuSans-74" x="484.570312"/>
      <use xlink:href="#DejaVuSans-69" x="523.779297"/>
      <use xlink:href="#DejaVuSans-6f" x="551.5625"/>
      <use xlink:href="#DejaVuSans-6e" x="612.744141"/>
      <use xlink:href="#DejaVuSans-2c" x="676.123047"/>
      <use xlink:href="#DejaVuSans-20" x="707.910156"/>
      <use xlink:href="#DejaVuSans-73" x="739.697266"/>
      <use xlink:href="#DejaVuSans-70" x="791.796875"/>
      <use xlink:href="#DejaVuSans-68" x="855.273438"/>
      <use xlink:href="#DejaVuSans-65" x="918.652344"/>
      <use xlink:href="#DejaVuSans-72" x="980.175781"/>
      <use xlink:href="#DejaVuSans-69" x="1021.289062"/>
      <use xlink:href="#DejaVuSans-63" x="1049.072266"/>
      <use xlink:href="#DejaVuSans-61" x="1104.052734"/>
      <use xlink:href="#DejaVuSans-6c" x="1165.332031"/>
     </g>
    </g>
    <g id="line2d_38">
     <path d="M 71.93125 50.169687 
L 81.93125 50.169687 
L 91.93125 50.169687 
" style="fill: none; stroke-dasharray: 5.55,2.4; stroke-dashoffset: 0; stroke: #1f77b4; stroke-width: 1.5"/>
    </g>
    <g id="text_17">
     <!-- p-polarization, spherical -->
     <g transform="translate(99.93125 53.669687) scale(0.1 -0.1)">
      <use xlink:href="#DejaVuSans-70"/>
      <use xlink:href="#DejaVuSans-2d" x="63.476562"/>
      <use xlink:href="#DejaVuSans-70" x="99.560547"/>
      <use xlink:href="#DejaVuSans-6f" x="163.037109"/>
      <use xlink:href="#DejaVuSans-6c" x="224.21875"/>
      <use xlink:href="#DejaVuSans-61" x="252.001953"/>
      <use xlink:href="#DejaVuSans-72" x="313.28125"/>
      <use xlink:href="#DejaVuSans-69" x="354.394531"/>
      <use xlink:href="#DejaVuSans-7a" x="382.177734"/>
      <use xlink:href="#DejaVuSans-61" x="434.667969"/>
      <use xlink:href="#DejaVuSans-74" x="495.947266"/>
      <use xlink:href="#DejaVuSans-69" x="535.15625"/>
      <use xlink:href="#DejaVuSans-6f" x="562.939453"/>
      <use xlink:href="#DejaVuSans-6e" x="624.121094"/>
      <use xlink:href="#DejaVuSans-2c" x="687.5"/>
      <use xlink:href="#DejaVuSans-20" x="719.287109"/>
      <use xlink:href="#DejaVuSans-73" x="751.074219"/>
      <use xlink:href="#DejaVuSans-70" x="803.173828"/>
      <use xlink:href="#DejaVuSans-68" x="866.650391"/>
      <use xlink:href="#DejaVuSans-65" x="930.029297"/>
      <use xlink:href="#DejaVuSans-72" x="991.552734"/>
      <use xlink:href="#DejaVuSans-69" x="1032.666016"/>
      <use xlink:href="#DejaVuSans-63" x="1060.449219"/>
      <use xlink:href="#DejaVuSans-61" x="1115.429688"/>
      <use xlink:href="#DejaVuSans-6c" x="1176.708984"/>
     </g>
    </g>
    <g id="line2d_39">
     <path d="M 71.93125 64.847812 
L 81.93125 64.847812 
L 91.93125 64.847812 
" style="fill: none; stroke: #ff7f0e; stroke-width: 1.5; stroke-linecap: square"/>
    </g>
    <g id="text_18">
     <!-- s-polarization, aspheric n=1.45 -->
     <g transform="translate(99.93125 68.347812) scale(0.1 -0.1)">
      <defs>
       <path id="DejaVuSans-3d" d="M 678 2906 
L 4684 2906 
L 4684 2381 
L 678 2381 
L 678 2906 
z
M 678 1631 
L 4684 1631 
L 4684 1100 
L 678 1100 
L 678 1631 
z
" transform="scale(0.015625)"/>
      </defs>
      <use xlink:href="#DejaVuSans-73"/>
      <use xlink:href="#DejaVuSans-2d" x="52.099609"/>
      <use xlink:href="#DejaVuSans-70" x="88.183594"/>
      <use xlink:href="#DejaVuSans-6f" x="151.660156"/>
      <use xlink:href="#DejaVuSans-6c" x="212.841797"/>
      <use xlink:href="#DejaVuSans-61" x="240.625"/>
      <use xlink:href="#DejaVuSans-72" x="301.904297"/>
      <use xlink:href="#DejaVuSans-69" x="343.017578"/>
      <use xlink:href="#DejaVuSans-7a" x="370.800781"/>
      <use xlink:href="#DejaVuSans-61" x="423.291016"/>
      <use xlink:href="#DejaVuSans-74" x="484.570312"/>
      <use xlink:href="#DejaVuSans-69" x="523.779297"/>
      <use xlink:href="#DejaVuSans-6f" x="551.5625"/>
      <use xlink:href="#DejaVuSans-6e" x="612.744141"/>
      <use xlink:href="#DejaVuSans-2c" x="676.123047"/>
      <use xlink:href="#DejaVuSans-20" x="707.910156"/>
      <use xlink:href="#DejaVuSans-61" x="739.697266"/>
      <use xlink:href="#DejaVuSans-73" x="800.976562"/>
      <use xlink:href="#DejaVuSans-70" x="853.076172"/>
      <use xlink:href="#DejaVuSans-68" x="916.552734"/>
      <use xlink:href="#DejaVuSans-65" x="979.931641"/>
      <use xlink:href="#DejaVuSans-72" x="1041.455078"/>
      <use xlink:href="#DejaVuSans-69" x="1082.568359"/>
      <use xlink:href="#DejaVuSans-63" x="1110.351562"/>
      <use xlink:href="#DejaVuSans-20" x="1165.332031"/>
      <use xlink:href="#DejaVuSans-6e" x="1197.119141"/>
      <use xlink:href="#DejaVuSans-3d" x="1260.498047"/>
      <use xlink:href="#DejaVuSans-31" x="1344.287109"/>
      <use xlink:href="#DejaVuSans-2e" x="1407.910156"/>
      <use xlink:href="#DejaVuSans-34" x="1439.697266"/>
      <use xlink:href="#DejaVuSans-35" x="1503.320312"/>
     </g>
    </g>
    <g id="line2d_40">
     <path d="M 71.93125 79.525937 
L 81.93125 79.525937 
L 91.93125 79.525937 
" style="fill: none; stroke-dasharray: 5.55,2.4; stroke-dashoffset: 0; stroke: #ff7f0e; stroke-width: 1.5"/>
    </g>
    <g id="text_19">
     <!-- p-polarization, aspheric n=1.45 -->
     <g transform="translate(99.93125 83.025937) scale(0.1 -0.1)">
      <use xlink:href="#DejaVuSans-70"/>
      <use xlink:href="#DejaVuSans-2d" x="63.476562"/>
      <use xlink:href="#DejaVuSans-70" x="99.560547"/>
      <use xlink:href="#DejaVuSans-6f" x="163.037109"/>
      <use xlink:href="#DejaVuSans-6c" x="224.21875"/>
      <use xlink:href="#DejaVuSans-61" x="252.001953"/>
      <use xlink:href="#DejaVuSans-72" x="313.28125"/>
      <use xlink:href="#DejaVuSans-69" x="354.394531"/>
      <use xlink:href="#DejaVuSans-7a" x="382.177734"/>
      <use xlink:href="#DejaVuSans-61" x="434.667969"/>
      <use xlink:href="#DejaVuSans-74" x="495.947266"/>
      <use xlink:href="#DejaVuSans-69" x="535.15625"/>
      <use xlink:href="#DejaVuSans-6f" x="562.939453"/>
      <use xlink:href="#DejaVuSans-6e" x="624.121094"/>
      <use xlink:href="#DejaVuSans-2c" x="687.5"/>
      <use xlink:href="#DejaVuSans-20" x="719.287109"/>
      <use xlink:href="#DejaVuSans-61" x="751.074219"/>
      <use xlink:href="#DejaVuSans-73" x="812.353516"/>
      <use xlink:href="#DejaVuSans-70" x="864.453125"/>
      <use xlink:href="#DejaVuSans-68" x="927.929688"/>
      <use xlink:href="#DejaVuSans-65" x="991.308594"/>
      <use xlink:href="#DejaVuSans-72" x="1052.832031"/>
      <use xlink:href="#DejaVuSans-69" x="1093.945312"/>
      <use xlink:href="#DejaVuSans-63" x="1121.728516"/>
      <use xlink:href="#DejaVuSans-20" x="1176.708984"/>
      <use xlink:href="#DejaVuSans-6e" x="1208.496094"/>
      <use xlink:href="#DejaVuSans-3d" x="1271.875"/>
      <use xlink:href="#DejaVuSans-31" x="1355.664062"/>
      <use xlink:href="#DejaVuSans-2e" x="1419.287109"/>
      <use xlink:href="#DejaVuSans-34" x="1451.074219"/>
      <use xlink:href="#DejaVuSans-35" x="1514.697266"/>
     </g>
    </g>
    <g id="line2d_41">
     <path d="M 71.93125 94.204062 
L 81.93125 94.204062 
L 91.93125 94.204062 
" style="fill: none; stroke: #2ca02c; stroke-width: 1.5; stroke-linecap: square"/>
    </g>
    <g id="text_20">
     <!-- s-polarization, aspheric n=1.8 -->
     <g transform="translate(99.93125 97.704062) scale(0.1 -0.1)">
      <use xlink:href="#DejaVuSans-73"/>
      <use xlink:href="#DejaVuSans-2d" x="52.099609"/>
      <use xlink:href="#DejaVuSans-70" x="88.183594"/>
      <use xlink:href="#DejaVuSans-6f" x="151.660156"/>
      <use xlink:href="#DejaVuSans-6c" x="212.841797"/>
      <use xlink:href="#DejaVuSans-61" x="240.625"/>
      <use xlink:href="#DejaVuSans-72" x="301.904297"/>
      <use xlink:href="#DejaVuSans-69" x="343.017578"/>
      <use xlink:href="#DejaVuSans-7a" x="370.800781"/>
      <use xlink:href="#DejaVuSans-61" x="423.291016"/>
      <use xlink:href="#DejaVuSans-74" x="484.570312"/>
      <use xlink:href="#DejaVuSans-69" x="523.779297"/>
      <use xlink:href="#DejaVuSans-6f" x="551.5625"/>
      <use xlink:href="#DejaVuSans-6e" x="612.744141"/>
      <use xlink:href="#DejaVuSans-2c" x="676.123047"/>
      <use xlink:href="#DejaVuSans-20" x="707.910156"/>
      <use xlink:href="#DejaVuSans-61" x="739.697266"/>
      <use xlink:href="#DejaVuSans-73" x="800.976562"/>
      <use xlink:href="#DejaVuSans-70" x="853.076172"/>
      <use xlink:href="#DejaVuSans-68" x="916.552734"/>
      <use xlink:href="#DejaVuSans-65" x="979.931641"/>
      <use xlink:href="#DejaVuSans-72" x="1041.455078"/>
      <use xlink:href="#DejaVuSans-69" x="1082.568359"/>
      <use xlink:href="#DejaVuSans-63" x="1110.351562"/>
      <use xlink:href="#DejaVuSans-20" x="1165.332031"/>
      <use xlink:href="#DejaVuSans-6e" x="1197.119141"/>
      <use xlink:href="#DejaVuSans-3d" x="1260.498047"/>
      <use xlink:href="#DejaVuSans-31" x="1344.287109"/>
      <use xlink:href="#DejaVuSans-2e" x="1407.910156"/>
      <use xlink:href="#DejaVuSans-38" x="1439.697266"/>
     </g>
    </g>
    <g id="line2d_42">
     <path d="M 71.93125 108.882187 
L 81.93125 108.882187 
L 91.93125 108.882187 
" style="fill: none; stroke-dasharray: 5.55,2.4; stroke-dashoffset: 0; stroke: #2ca02c; stroke-width: 1.5"/>
    </g>
    <g id="text_21">
     <!-- p-polarization, aspheric n=1.8 -->
     <g transform="translate(99.93125 112.382187) scale(0.1 -0.1)">
      <use xlink:href="#DejaVuSans-70"/>
      <use xlink:href="#DejaVuSans-2d" x="63.476562"/>
      <use xlink:href="#DejaVuSans-70" x="99.560547"/>
      <use xlink:href="#DejaVuSans-6f" x="163.037109"/>
      <use xlink:href="#DejaVuSans-6c" x="224.21875"/>
      <use xlink:href="#DejaVuSans-61" x="252.001953"/>
      <use xlink:href="#DejaVuSans-72" x="313.28125"/>
      <use xlink:href="#DejaVuSans-69" x="354.394531"/>
      <use xlink:href="#DejaVuSans-7a" x="382.177734"/>
      <use xlink:href="#DejaVuSans-61" x="434.667969"/>
      <use xlink:href="#DejaVuSans-74" x="495.947266"/>
      <use xlink:href="#DejaVuSans-69" x="535.15625"/>
      <use xlink:href="#DejaVuSans-6f" x="562.939453"/>
      <use xlink:href="#DejaVuSans-6e" x="624.121094"/>
      <use xlink:href="#DejaVuSans-2c" x="687.5"/>
      <use xlink:href="#DejaVuSans-20" x="719.287109"/>
      <use xlink:href="#DejaVuSans-61" x="751.074219"/>
      <use xlink:href="#DejaVuSans-73" x="812.353516"/>
      <use xlink:href="#DejaVuSans-70" x="864.453125"/>
      <use xlink:href="#DejaVuSans-68" x="927.929688"/>
      <use xlink:href="#DejaVuSans-65" x="991.308594"/>
      <use xlink:href="#DejaVuSans-72" x="1052.832031"/>
      <use xlink:href="#DejaVuSans-69" x="1093.945312"/>
      <use xlink:href="#DejaVuSans-63" x="1121.728516"/>
      <use xlink:href="#DejaVuSans-20" x="1176.708984"/>
      <use xlink:href="#DejaVuSans-6e" x="1208.496094"/>
      <use xlink:href="#DejaVuSans-3d" x="1271.875"/>
      <use xlink:href="#DejaVuSans-31" x="1355.664062"/>
      <use xlink:href="#DejaVuSans-2e" x="1419.287109"/>
      <use xlink:href="#DejaVuSans-38" x="1451.074219"/>
     </g>
    </g>
    <g id="line2d_43">
     <path d="M 71.93125 123.560312 
L 81.93125 123.560312 
L 91.93125 123.560312 
" style="fill: none; stroke: #d62728; stroke-width: 1.5; stroke-linecap: square"/>
    </g>
    <g id="text_22">
     <!-- s-polarization, D-collimated n=1.45 -->
     <g transform="translate(99.93125 127.060312) scale(0.1 -0.1)">
      <defs>
       <path id="DejaVuSans-6d" d="M 3328 2828 
Q 3544 3216 3844 3400 
Q 4144 3584 4550 3584 
Q 5097 3584 5394 3201 
Q 5691 2819 5691 2113 
L 5691 0 
L 5113 0 
L 5113 2094 
Q 5113 2597 4934 2840 
Q 4756 3084 4391 3084 
Q 3944 3084 3684 2787 
Q 3425 2491 3425 1978 
L 3425 0 
L 2847 0 
L 2847 2094 
Q 2847 2600 2669 2842 
Q 2491 3084 2119 3084 
Q 1678 3084 1418 2786 
Q 1159 2488 1159 1978 
L 1159 0 
L 581 0 
L 581 3500 
L 1159 3500 
L 1159 2956 
Q 1356 3278 1631 3431 
Q 1906 3584 2284 3584 
Q 2666 3584 2933 3390 
Q 3200 3197 3328 2828 
z
" transform="scale(0.015625)"/>
      </defs>
      <use xlink:href="#DejaVuSans-73"/>
      <use xlink:href="#DejaVuSans-2d" x="52.099609"/>
      <use xlink:href="#DejaVuSans-70" x="88.183594"/>
      <use xlink:href="#DejaVuSans-6f" x="151.660156"/>
      <use xlink:href="#DejaVuSans-6c" x="212.841797"/>
      <use xlink:href="#DejaVuSans-61" x="240.625"/>
      <use xlink:href="#DejaVuSans-72" x="301.904297"/>
      <use xlink:href="#DejaVuSans-69" x="343.017578"/>
      <use xlink:href="#DejaVuSans-7a" x="370.800781"/>
      <use xlink:href="#DejaVuSans-61" x="423.291016"/>
      <use xlink:href="#DejaVuSans-74" x="484.570312"/>
      <use xlink:href="#DejaVuSans-69" x="523.779297"/>
      <use xlink:href="#DejaVuSans-6f" x="551.5625"/>
      <use xlink:href="#DejaVuSans-6e" x="612.744141"/>
      <use xlink:href="#DejaVuSans-2c" x="676.123047"/>
      <use xlink:href="#DejaVuSans-20" x="707.910156"/>
      <use xlink:href="#DejaVuSans-44" x="739.697266"/>
      <use xlink:href="#DejaVuSans-2d" x="816.699219"/>
      <use xlink:href="#DejaVuSans-63" x="852.783203"/>
      <use xlink:href="#DejaVuSans-6f" x="907.763672"/>
      <use xlink:href="#DejaVuSans-6c" x="968.945312"/>
      <use xlink:href="#DejaVuSans-6c" x="996.728516"/>
      <use xlink:href="#DejaVuSans-69" x="1024.511719"/>
      <use xlink:href="#DejaVuSans-6d" x="1052.294922"/>
      <use xlink:href="#DejaVuSans-61" x="1149.707031"/>
      <use xlink:href="#DejaVuSans-74" x="1210.986328"/>
      <use xlink:href="#DejaVuSans-65" x="1250.195312"/>
      <use xlink:href="#DejaVuSans-64" x="1311.71875"/>
      <use xlink:href="#DejaVuSans-20" x="1375.195312"/>
      <use xlink:href="#DejaVuSans-6e" x="1406.982422"/>
      <use xlink:href="#DejaVuSans-3d" x="1470.361328"/>
      <use xlink:href="#DejaVuSans-31" x="1554.150391"/>
      <use xlink:href="#DejaVuSans-2e" x="1617.773438"/>
      <use xlink:href="#DejaVuSans-34" x="1649.560547"/>
      <use xlink:href="#DejaVuSans-35" x="1713.183594"/>
     </g>
    </g>
    <g id="line2d_44">
     <path d="M 71.93125 138.238437 
L 81.93125 138.238437 
L 91.93125 138.238437 
" style="fill: none; stroke-dasharray: 5.55,2.4; stroke-dashoffset: 0; stroke: #d62728; stroke-width: 1.5"/>
    </g>
    <g id="text_23">
     <!-- p-polarization, D-collimated n=1.45 -->
     <g transform="translate(99.93125 141.738437) scale(0.1 -0.1)">
      <use xlink:href="#DejaVuSans-70"/>
      <use xlink:href="#DejaVuSans-2d" x="63.476562"/>
      <use xlink:href="#DejaVuSans-70" x="99.560547"/>
      <use xlink:href="#DejaVuSans-6f" x="163.037109"/>
      <use xlink:href="#DejaVuSans-6c" x="224.21875"/>
      <use xlink:href="#DejaVuSans-61" x="252.001953"/>
      <use xlink:href="#DejaVuSans-72" x="313.28125"/>
      <use xlink:href="#DejaVuSans-69" x="354.394531"/>
      <use xlink:href="#DejaVuSans-7a" x="382.177734"/>
      <use xlink:href="#DejaVuSans-61" x="434.667969"/>
      <use xlink:href="#DejaVuSans-74" x="495.947266"/>
      <use xlink:href="#DejaVuSans-69" x="535.15625"/>
      <use xlink:href="#DejaVuSans-6f" x="562.939453"/>
      <use xlink:href="#DejaVuSans-6e" x="624.121094"/>
      <use xlink:href="#DejaVuSans-2c" x="687.5"/>
      <use xlink:href="#DejaVuSans-20" x="719.287109"/>
      <use xlink:href="#DejaVuSans-44" x="751.074219"/>
      <use xlink:href="#DejaVuSans-2d" x="828.076172"/>
      <use xlink:href="#DejaVuSans-63" x="864.160156"/>
      <use xlink:href="#DejaVuSans-6f" x="919.140625"/>
      <use xlink:href="#DejaVuSans-6c" x="980.322266"/>
      <use xlink:href="#DejaVuSans-6c" x="1008.105469"/>
      <use xlink:href="#DejaVuSans-69" x="1035.888672"/>
      <use xlink:href="#DejaVuSans-6d" x="1063.671875"/>
      <use xlink:href="#DejaVuSans-61" x="1161.083984"/>
      <use xlink:href="#DejaVuSans-74" x="1222.363281"/>
      <use xlink:href="#DejaVuSans-65" x="1261.572266"/>
      <use xlink:href="#DejaVuSans-64" x="1323.095703"/>
      <use xlink:href="#DejaVuSans-20" x="1386.572266"/>
      <use xlink:href="#DejaVuSans-6e" x="1418.359375"/>
      <use xlink:href="#DejaVuSans-3d" x="1481.738281"/>
      <use xlink:href="#DejaVuSans-31" x="1565.527344"/>
      <use xlink:href="#DejaVuSans-2e" x="1629.150391"/>
      <use xlink:href="#DejaVuSans-34" x="1660.9375"/>
      <use xlink:href="#DejaVuSans-35" x="1724.560547"/>
     </g>
    </g>
    <g id="line2d_45">
     <path d="M 71.93125 152.916562 
L 81.93125 152.916562 
L 91.93125 152.916562 
" style="fill: none; stroke: #9467bd; stroke-width: 1.5; stroke-linecap: square"/>
    </g>
    <g id="text_24">
     <!-- s-polarization, D-collimated n=1.8 -->
     <g transform="translate(99.93125 156.416562) scale(0.1 -0.1)">
      <use xlink:href="#DejaVuSans-73"/>
      <use xlink:href="#DejaVuSans-2d" x="52.099609"/>
      <use xlink:href="#DejaVuSans-70" x="88.183594"/>
      <use xlink:href="#DejaVuSans-6f" x="151.660156"/>
      <use xlink:href="#DejaVuSans-6c" x="212.841797"/>
      <use xlink:href="#DejaVuSans-61" x="240.625"/>
      <use xlink:href="#DejaVuSans-72" x="301.904297"/>
      <use xlink:href="#DejaVuSans-69" x="343.017578"/>
      <use xlink:href="#DejaVuSans-7a" x="370.800781"/>
      <use xlink:href="#DejaVuSans-61" x="423.291016"/>
      <use xlink:href="#DejaVuSans-74" x="484.570312"/>
      <use xlink:href="#DejaVuSans-69" x="523.779297"/>
      <use xlink:href="#DejaVuSans-6f" x="551.5625"/>
      <use xlink:href="#DejaVuSans-6e" x="612.744141"/>
      <use xlink:href="#DejaVuSans-2c" x="676.123047"/>
      <use xlink:href="#DejaVuSans-20" x="707.910156"/>
      <use xlink:href="#DejaVuSans-44" x="739.697266"/>
      <use xlink:href="#DejaVuSans-2d" x="816.699219"/>
      <use xlink:href="#DejaVuSans-63" x="852.783203"/>
      <use xlink:href="#DejaVuSans-6f" x="907.763672"/>
      <use xlink:href="#DejaVuSans-6c" x="968.945312"/>
      <use xlink:href="#DejaVuSans-6c" x="996.728516"/>
      <use xlink:href="#DejaVuSans-69" x="1024.511719"/>
      <use xlink:href="#DejaVuSans-6d" x="1052.294922"/>
      <use xlink:href="#DejaVuSans-61" x="1149.707031"/>
      <use xlink:href="#DejaVuSans-74" x="1210.986328"/>
      <use xlink:href="#DejaVuSans-65" x="1250.195312"/>
      <use xlink:href="#DejaVuSans-64" x="1311.71875"/>
      <use xlink:href="#DejaVuSans-20" x="1375.195312"/>
      <use xlink:href="#DejaVuSans-6e" x="1406.982422"/>
      <use xlink:href="#DejaVuSans-3d" x="1470.361328"/>
      <use xlink:href="#DejaVuSans-31" x="1554.150391"/>
      <use xlink:href="#DejaVuSans-2e" x="1617.773438"/>
      <use xlink:href="#DejaVuSans-38" x="1649.560547"/>
     </g>
    </g>
    <g id="line2d_46">
     <path d="M 71.93125 167.594687 
L 81.93125 167.594687 
L 91.93125 167.594687 
" style="fill: none; stroke-dasharray: 5.55,2.4; stroke-dashoffset: 0; stroke: #9467bd; stroke-width: 1.5"/>
    </g>
    <g id="text_25">
     <!-- p-polarization, D-collimated n=1.8 -->
     <g transform="translate(99.93125 171.094687) scale(0.1 -0.1)">
      <use xlink:href="#DejaVuSans-70"/>
      <use xlink:href="#DejaVuSans-2d" x="63.476562"/>
      <use xlink:href="#DejaVuSans-70" x="99.560547"/>
      <use xlink:href="#DejaVuSans-6f" x="163.037109"/>
      <use xlink:href="#DejaVuSans-6c" x="224.21875"/>
      <use xlink:href="#DejaVuSans-61" x="252.001953"/>
      <use xlink:href="#DejaVuSans-72" x="313.28125"/>
      <use xlink:href="#DejaVuSans-69" x="354.394531"/>
      <use xlink:href="#DejaVuSans-7a" x="382.177734"/>
      <use xlink:href="#DejaVuSans-61" x="434.667969"/>
      <use xlink:href="#DejaVuSans-74" x="495.947266"/>
      <use xlink:href="#DejaVuSans-69" x="535.15625"/>
      <use xlink:href="#DejaVuSans-6f" x="562.939453"/>
      <use xlink:href="#DejaVuSans-6e" x="624.121094"/>
      <use xlink:href="#DejaVuSans-2c" x="687.5"/>
      <use xlink:href="#DejaVuSans-20" x="719.287109"/>
      <use xlink:href="#DejaVuSans-44" x="751.074219"/>
      <use xlink:href="#DejaVuSans-2d" x="828.076172"/>
      <use xlink:href="#DejaVuSans-63" x="864.160156"/>
      <use xlink:href="#DejaVuSans-6f" x="919.140625"/>
      <use xlink:href="#DejaVuSans-6c" x="980.322266"/>
      <use xlink:href="#DejaVuSans-6c" x="1008.105469"/>
      <use xlink:href="#DejaVuSans-69" x="1035.888672"/>
      <use xlink:href="#DejaVuSans-6d" x="1063.671875"/>
      <use xlink:href="#DejaVuSans-61" x="1161.083984"/>
      <use xlink:href="#DejaVuSans-74" x="1222.363281"/>
      <use xlink:href="#DejaVuSans-65" x="1261.572266"/>
      <use xlink:href="#DejaVuSans-64" x="1323.095703"/>
      <use xlink:href="#DejaVuSans-20" x="1386.572266"/>
      <use xlink:href="#DejaVuSans-6e" x="1418.359375"/>
      <use xlink:href="#DejaVuSans-3d" x="1481.738281"/>
      <use xlink:href="#DejaVuSans-31" x="1565.527344"/>
      <use xlink:href="#DejaVuSans-2e" x="1629.150391"/>
      <use xlink:href="#DejaVuSans-38" x="1660.9375"/>
     </g>
    </g>
    <g id="line2d_47">
     <path d="M 71.93125 182.272812 
L 81.93125 182.272812 
L 91.93125 182.272812 
" style="fill: none; stroke: #8c564b; stroke-width: 1.5; stroke-linecap: square"/>
    </g>
    <g id="text_26">
     <!-- s-polarization, D-focused -->
     <g transform="translate(99.93125 185.772812) scale(0.1 -0.1)">
      <defs>
       <path id="DejaVuSans-75" d="M 544 1381 
L 544 3500 
L 1119 3500 
L 1119 1403 
Q 1119 906 1312 657 
Q 1506 409 1894 409 
Q 2359 409 2629 706 
Q 2900 1003 2900 1516 
L 2900 3500 
L 3475 3500 
L 3475 0 
L 2900 0 
L 2900 538 
Q 2691 219 2414 64 
Q 2138 -91 1772 -91 
Q 1169 -91 856 284 
Q 544 659 544 1381 
z
M 1991 3584 
L 1991 3584 
z
" transform="scale(0.015625)"/>
      </defs>
      <use xlink:href="#DejaVuSans-73"/>
      <use xlink:href="#DejaVuSans-2d" x="52.099609"/>
      <use xlink:href="#DejaVuSans-70" x="88.183594"/>
      <use xlink:href="#DejaVuSans-6f" x="151.660156"/>
      <use xlink:href="#DejaVuSans-6c" x="212.841797"/>
      <use xlink:href="#DejaVuSans-61" x="240.625"/>
      <use xlink:href="#DejaVuSans-72" x="301.904297"/>
      <use xlink:href="#DejaVuSans-69" x="343.017578"/>
      <use xlink:href="#DejaVuSans-7a" x="370.800781"/>
      <use xlink:href="#DejaVuSans-61" x="423.291016"/>
      <use xlink:href="#DejaVuSans-74" x="484.570312"/>
      <use xlink:href="#DejaVuSans-69" x="523.779297"/>
      <use xlink:href="#DejaVuSans-6f" x="551.5625"/>
      <use xlink:href="#DejaVuSans-6e" x="612.744141"/>
      <use xlink:href="#DejaVuSans-2c" x="676.123047"/>
      <use xlink:href="#DejaVuSans-20" x="707.910156"/>
      <use xlink:href="#DejaVuSans-44" x="739.697266"/>
      <use xlink:href="#DejaVuSans-2d" x="816.699219"/>
      <use xlink:href="#DejaVuSans-66" x="852.783203"/>
      <use xlink:href="#DejaVuSans-6f" x="887.988281"/>
      <use xlink:href="#DejaVuSans-63" x="949.169922"/>
      <use xlink:href="#DejaVuSans-75" x="1004.150391"/>
      <use xlink:href="#DejaVuSans-73" x="1067.529297"/>
      <use xlink:href="#DejaVuSans-65" x="1119.628906"/>
      <use xlink:href="#DejaVuSans-64" x="1181.152344"/>
     </g>
    </g>
    <g id="line2d_48">
     <path d="M 71.93125 196.950937 
L 81.93125 196.950937 
L 91.93125 196.950937 
" style="fill: none; stroke-dasharray: 5.55,2.4; stroke-dashoffset: 0; stroke: #8c564b; stroke-width: 1.5"/>
    </g>
    <g id="text_27">
     <!-- p-polarization, D-focused -->
     <g transform="translate(99.93125 200.450937) scale(0.1 -0.1)">
      <use xlink:href="#DejaVuSans-70"/>
      <use xlink:href="#DejaVuSans-2d" x="63.476562"/>
      <use xlink:href="#DejaVuSans-70" x="99.560547"/>
      <use xlink:href="#DejaVuSans-6f" x="163.037109"/>
      <use xlink:href="#DejaVuSans-6c" x="224.21875"/>
      <use xlink:href="#DejaVuSans-61" x="252.001953"/>
      <use xlink:href="#DejaVuSans-72" x="313.28125"/>
      <use xlink:href="#DejaVuSans-69" x="354.394531"/>
      <use xlink:href="#DejaVuSans-7a" x="382.177734"/>
      <use xlink:href="#DejaVuSans-61" x="434.667969"/>
      <use xlink:href="#DejaVuSans-74" x="495.947266"/>
      <use xlink:href="#DejaVuSans-69" x="535.15625"/>
      <use xlink:href="#DejaVuSans-6f" x="562.939453"/>
      <use xlink:href="#DejaVuSans-6e" x="624.121094"/>
      <use xlink:href="#DejaVuSans-2c" x="687.5"/>
      <use xlink:href="#DejaVuSans-20" x="719.287109"/>
      <use xlink:href="#DejaVuSans-44" x="751.074219"/>
      <use xlink:href="#DejaVuSans-2d" x="828.076172"/>
      <use xlink:href="#DejaVuSans-66" x="864.160156"/>
      <use xlink:href="#DejaVuSans-6f" x="899.365234"/>
      <use xlink:href="#DejaVuSans-63" x="960.546875"/>
      <use xlink:href="#DejaVuSans-75" x="1015.527344"/>
      <use xlink:href="#DejaVuSans-73" x="1078.90625"/>
      <use xlink:href="#DejaVuSans-65" x="1131.005859"/>
      <use xlink:href="#DejaVuSans-64" x="1192.529297"/>
     </g>
    </g>
   </g>
  </g>
 </g>
 <defs>
  <clipPath id="p2ae1fa5134">
   <rect x="62.93125" y="22.393125" width="558" height="332.64"/>
  </clipPath>
 </defs>
</svg>
