<?xml version="1.0" encoding="utf-8" standalone="no"?>
<!DOCTYPE svg PUBLIC "-//W3C//DTD SVG 1.1//EN"
  "http://www.w3.org/Graphics/SVG/1.1/DTD/svg11.dtd">
<svg xmlns:xlink="http://www.w3.org/1999/xlink" width="612.165625pt" height="392.514375pt" viewBox="0 0 612.165625 392.514375" xmlns="http://www.w3.org/2000/svg" version="1.1">
 <metadata>
  <rdf:RDF xmlns:dc="http://purl.org/dc/elements/1.1/" xmlns:cc="http://creativecommons.org/ns#" xmlns:rdf="http://www.w3.org/1999/02/22-rdf-syntax-ns#">
   <cc:Work>
    <dc:type rdf:resource="http://purl.org/dc/dcmitype/StillImage"/>
    <dc:date>2026-03-22T18:33:36.412849</dc:date>
    <dc:format>image/svg+xml</dc:format>
    <dc:creator>
     <cc:Agent>
      <dc:title>Matplotlib v3.8.4, https://matplotlib.org/</dc:title>
     </cc:Agent>
    </dc:creator>
   </cc:Work>
  </rdf:RDF>
 </metadata>
 <defs>
  <style type="text/css">*{stroke-linejoin: round; stroke-linecap: butt}</style>
 </defs>
 <g id="figure_1">
  <g id="patch_1">
   <path d="M 0 392.514375 
L 612.165625 392.514375 
L 612.165625 0 
L 0 0 
z
" style="fill: #ffffff"/>
  </g>
  <g id="axes_1">
   <g id="patch_2">
    <path d="M 46.965625 354.958125 
L 604.965625 354.958125 
L 604.965625 22.318125 
L 46.965625 22.318125 
z
" style="fill: #ffffff"/>
   </g>
   <g id="matplotlib.axis_1">
    <g id="xtick_1">
     <g id="line2d_1">
      <path d="M 106.147443 354.958125 
L 106.147443 22.318125 
" clip-path="url(#p3913bebc86)" style="fill: none; stroke: #b0b0b0; stroke-width: 0.8; stroke-linecap: square"/>
     </g>
     <g id="line2d_2">
      <defs>
       <path id="m498d19c17e" d="M 0 0 
L 0 3.5 
" style="stroke: #000000; stroke-width: 0.8"/>
      </defs>
      <g>
       <use xlink:href="#m498d19c17e" x="106.147443" y="354.958125" style="stroke: #000000; stroke-width: 0.8"/>
      </g>
     </g>
     <g id="text_1">
      <!-- 0.06 -->
      <g transform="translate(95.014631 369.556562) scale(0.1 -0.1)">
       <defs>
        <path id="DejaVuSans-30" d="M 2034 4250 
Q 1547 4250 1301 3770 
Q 1056 3291 1056 2328 
Q 1056 1369 1301 889 
Q 1547 409 2034 409 
Q 2525 409 2770 889 
Q 3016 1369 3016 2328 
Q 3016 3291 2770 3770 
Q 2525 4250 2034 4250 
z
M 2034 4750 
Q 2819 4750 3233 4129 
Q 3647 3509 3647 2328 
Q 3647 1150 3233 529 
Q 2819 -91 2034 -91 
Q 1250 -91 836 529 
Q 422 1150 422 2328 
Q 422 3509 836 4129 
Q 1250 4750 2034 4750 
z
" transform="scale(0.015625)"/>
        <path id="DejaVuSans-2e" d="M 684 794 
L 1344 794 
L 1344 0 
L 684 0 
L 684 794 
z
" transform="scale(0.015625)"/>
        <path id="DejaVuSans-36" d="M 2113 2584 
Q 1688 2584 1439 2293 
Q 1191 2003 1191 1497 
Q 1191 994 1439 701 
Q 1688 409 2113 409 
Q 2538 409 2786 701 
Q 3034 994 3034 1497 
Q 3034 2003 2786 2293 
Q 2538 2584 2113 2584 
z
M 3366 4563 
L 3366 3988 
Q 3128 4100 2886 4159 
Q 2644 4219 2406 4219 
Q 1781 4219 1451 3797 
Q 1122 3375 1075 2522 
Q 1259 2794 1537 2939 
Q 1816 3084 2150 3084 
Q 2853 3084 3261 2657 
Q 3669 2231 3669 1497 
Q 3669 778 3244 343 
Q 2819 -91 2113 -91 
Q 1303 -91 875 529 
Q 447 1150 447 2328 
Q 447 3434 972 4092 
Q 1497 4750 2381 4750 
Q 2619 4750 2861 4703 
Q 3103 4656 3366 4563 
z
" transform="scale(0.015625)"/>
       </defs>
       <use xlink:href="#DejaVuSans-30"/>
       <use xlink:href="#DejaVuSans-2e" x="63.623047"/>
       <use xlink:href="#DejaVuSans-30" x="95.410156"/>
       <use xlink:href="#DejaVuSans-36" x="159.033203"/>
      </g>
     </g>
    </g>
    <g id="xtick_2">
     <g id="line2d_3">
      <path d="M 173.783807 354.958125 
L 173.783807 22.318125 
" clip-path="url(#p3913bebc86)" style="fill: none; stroke: #b0b0b0; stroke-width: 0.8; stroke-linecap: square"/>
     </g>
     <g id="line2d_4">
      <g>
       <use xlink:href="#m498d19c17e" x="173.783807" y="354.958125" style="stroke: #000000; stroke-width: 0.8"/>
      </g>
     </g>
     <g id="text_2">
      <!-- 0.08 -->
      <g transform="translate(162.650994 369.556562) scale(0.1 -0.1)">
       <defs>
        <path id="DejaVuSans-38" d="M 2034 2216 
Q 1584 2216 1326 1975 
Q 1069 1734 1069 1313 
Q 1069 891 1326 650 
Q 1584 409 2034 409 
Q 2484 409 2743 651 
Q 3003 894 3003 1313 
Q 3003 1734 2745 1975 
Q 2488 2216 2034 2216 
z
M 1403 2484 
Q 997 2584 770 2862 
Q 544 3141 544 3541 
Q 544 4100 942 4425 
Q 1341 4750 2034 4750 
Q 2731 4750 3128 4425 
Q 3525 4100 3525 3541 
Q 3525 3141 3298 2862 
Q 3072 2584 2669 2484 
Q 3125 2378 3379 2068 
Q 3634 1759 3634 1313 
Q 3634 634 3220 271 
Q 2806 -91 2034 -91 
Q 1263 -91 848 271 
Q 434 634 434 1313 
Q 434 1759 690 2068 
Q 947 2378 1403 2484 
z
M 1172 3481 
Q 1172 3119 1398 2916 
Q 1625 2713 2034 2713 
Q 2441 2713 2670 2916 
Q 2900 3119 2900 3481 
Q 2900 3844 2670 4047 
Q 2441 4250 2034 4250 
Q 1625 4250 1398 4047 
Q 1172 3844 1172 3481 
z
" transform="scale(0.015625)"/>
       </defs>
       <use xlink:href="#DejaVuSans-30"/>
       <use xlink:href="#DejaVuSans-2e" x="63.623047"/>
       <use xlink:href="#DejaVuSans-30" x="95.410156"/>
       <use xlink:href="#DejaVuSans-38" x="159.033203"/>
      </g>
     </g>
    </g>
    <g id="xtick_3">
     <g id="line2d_5">
      <path d="M 241.42017 354.958125 
L 241.42017 22.318125 
" clip-path="url(#p3913bebc86)" style="fill: none; stroke: #b0b0b0; stroke-width: 0.8; stroke-linecap: square"/>
     </g>
     <g id="line2d_6">
      <g>
       <use xlink:href="#m498d19c17e" x="241.42017" y="354.958125" style="stroke: #000000; stroke-width: 0.8"/>
      </g>
     </g>
     <g id="text_3">
      <!-- 0.10 -->
      <g transform="translate(230.287358 369.556562) scale(0.1 -0.1)">
       <defs>
        <path id="DejaVuSans-31" d="M 794 531 
L 1825 531 
L 1825 4091 
L 703 3866 
L 703 4441 
L 1819 4666 
L 2450 4666 
L 2450 531 
L 3481 531 
L 3481 0 
L 794 0 
L 794 531 
z
" transform="scale(0.015625)"/>
       </defs>
       <use xlink:href="#DejaVuSans-30"/>
       <use xlink:href="#DejaVuSans-2e" x="63.623047"/>
       <use xlink:href="#DejaVuSans-31" x="95.410156"/>
       <use xlink:href="#DejaVuSans-30" x="159.033203"/>
      </g>
     </g>
    </g>
    <g id="xtick_4">
     <g id="line2d_7">
      <path d="M 309.056534 354.958125 
L 309.056534 22.318125 
" clip-path="url(#p3913bebc86)" style="fill: none; stroke: #b0b0b0; stroke-width: 0.8; stroke-linecap: square"/>
     </g>
     <g id="line2d_8">
      <g>
       <use xlink:href="#m498d19c17e" x="309.056534" y="354.958125" style="stroke: #000000; stroke-width: 0.8"/>
      </g>
     </g>
     <g id="text_4">
      <!-- 0.12 -->
      <g transform="translate(297.923722 369.556562) scale(0.1 -0.1)">
       <defs>
        <path id="DejaVuSans-32" d="M 1228 531 
L 3431 531 
L 3431 0 
L 469 0 
L 469 531 
Q 828 903 1448 1529 
Q 2069 2156 2228 2338 
Q 2531 2678 2651 2914 
Q 2772 3150 2772 3378 
Q 2772 3750 2511 3984 
Q 2250 4219 1831 4219 
Q 1534 4219 1204 4116 
Q 875 4013 500 3803 
L 500 4441 
Q 881 4594 1212 4672 
Q 1544 4750 1819 4750 
Q 2544 4750 2975 4387 
Q 3406 4025 3406 3419 
Q 3406 3131 3298 2873 
Q 3191 2616 2906 2266 
Q 2828 2175 2409 1742 
Q 1991 1309 1228 531 
z
" transform="scale(0.015625)"/>
       </defs>
       <use xlink:href="#DejaVuSans-30"/>
       <use xlink:href="#DejaVuSans-2e" x="63.623047"/>
       <use xlink:href="#DejaVuSans-31" x="95.410156"/>
       <use xlink:href="#DejaVuSans-32" x="159.033203"/>
      </g>
     </g>
    </g>
    <g id="xtick_5">
     <g id="line2d_9">
      <path d="M 376.692898 354.958125 
L 376.692898 22.318125 
" clip-path="url(#p3913bebc86)" style="fill: none; stroke: #b0b0b0; stroke-width: 0.8; stroke-linecap: square"/>
     </g>
     <g id="line2d_10">
      <g>
       <use xlink:href="#m498d19c17e" x="376.692898" y="354.958125" style="stroke: #000000; stroke-width: 0.8"/>
      </g>
     </g>
     <g id="text_5">
      <!-- 0.14 -->
      <g transform="translate(365.560085 369.556562) scale(0.1 -0.1)">
       <defs>
        <path id="DejaVuSans-34" d="M 2419 4116 
L 825 1625 
L 2419 1625 
L 2419 4116 
z
M 2253 4666 
L 3047 4666 
L 3047 1625 
L 3713 1625 
L 3713 1100 
L 3047 1100 
L 3047 0 
L 2419 0 
L 2419 1100 
L 313 1100 
L 313 1709 
L 2253 4666 
z
" transform="scale(0.015625)"/>
       </defs>
       <use xlink:href="#DejaVuSans-30"/>
       <use xlink:href="#DejaVuSans-2e" x="63.623047"/>
       <use xlink:href="#DejaVuSans-31" x="95.410156"/>
       <use xlink:href="#DejaVuSans-34" x="159.033203"/>
      </g>
     </g>
    </g>
    <g id="xtick_6">
     <g id="line2d_11">
      <path d="M 444.329261 354.958125 
L 444.329261 22.318125 
" clip-path="url(#p3913bebc86)" style="fill: none; stroke: #b0b0b0; stroke-width: 0.8; stroke-linecap: square"/>
     </g>
     <g id="line2d_12">
      <g>
       <use xlink:href="#m498d19c17e" x="444.329261" y="354.958125" style="stroke: #000000; stroke-width: 0.8"/>
      </g>
     </g>
     <g id="text_6">
      <!-- 0.16 -->
      <g transform="translate(433.196449 369.556562) scale(0.1 -0.1)">
       <use xlink:href="#DejaVuSans-30"/>
       <use xlink:href="#DejaVuSans-2e" x="63.623047"/>
       <use xlink:href="#DejaVuSans-31" x="95.410156"/>
       <use xlink:href="#DejaVuSans-36" x="159.033203"/>
      </g>
     </g>
    </g>
    <g id="xtick_7">
     <g id="line2d_13">
      <path d="M 511.965625 354.958125 
L 511.965625 22.318125 
" clip-path="url(#p3913bebc86)" style="fill: none; stroke: #b0b0b0; stroke-width: 0.8; stroke-linecap: square"/>
     </g>
     <g id="line2d_14">
      <g>
       <use xlink:href="#m498d19c17e" x="511.965625" y="354.958125" style="stroke: #000000; stroke-width: 0.8"/>
      </g>
     </g>
     <g id="text_7">
      <!-- 0.18 -->
      <g transform="translate(500.832813 369.556562) scale(0.1 -0.1)">
       <use xlink:href="#DejaVuSans-30"/>
       <use xlink:href="#DejaVuSans-2e" x="63.623047"/>
       <use xlink:href="#DejaVuSans-31" x="95.410156"/>
       <use xlink:href="#DejaVuSans-38" x="159.033203"/>
      </g>
     </g>
    </g>
    <g id="xtick_8">
     <g id="line2d_15">
      <path d="M 579.601989 354.958125 
L 579.601989 22.318125 
" clip-path="url(#p3913bebc86)" style="fill: none; stroke: #b0b0b0; stroke-width: 0.8; stroke-linecap: square"/>
     </g>
     <g id="line2d_16">
      <g>
       <use xlink:href="#m498d19c17e" x="579.601989" y="354.958125" style="stroke: #000000; stroke-width: 0.8"/>
      </g>
     </g>
     <g id="text_8">
      <!-- 0.20 -->
      <g transform="translate(568.469176 369.556562) scale(0.1 -0.1)">
       <use xlink:href="#DejaVuSans-30"/>
       <use xlink:href="#DejaVuSans-2e" x="63.623047"/>
       <use xlink:href="#DejaVuSans-32" x="95.410156"/>
       <use xlink:href="#DejaVuSans-30" x="159.033203"/>
      </g>
     </g>
    </g>
    <g id="text_9">
     <!-- NA -->
     <g transform="translate(318.804688 383.234687) scale(0.1 -0.1)">
      <defs>
       <path id="DejaVuSans-4e" d="M 628 4666 
L 1478 4666 
L 3547 763 
L 3547 4666 
L 4159 4666 
L 4159 0 
L 3309 0 
L 1241 3903 
L 1241 0 
L 628 0 
L 628 4666 
z
" transform="scale(0.015625)"/>
       <path id="DejaVuSans-41" d="M 2188 4044 
L 1331 1722 
L 3047 1722 
L 2188 4044 
z
M 1831 4666 
L 2547 4666 
L 4325 0 
L 3669 0 
L 3244 1197 
L 1141 1197 
L 716 0 
L 50 0 
L 1831 4666 
z
" transform="scale(0.015625)"/>
      </defs>
      <use xlink:href="#DejaVuSans-4e"/>
      <use xlink:href="#DejaVuSans-41" x="74.804688"/>
     </g>
    </g>
   </g>
   <g id="matplotlib.axis_2">
    <g id="ytick_1">
     <g id="line2d_17">
      <path d="M 46.965625 354.958125 
L 604.965625 354.958125 
" clip-path="url(#p3913bebc86)" style="fill: none; stroke: #b0b0b0; stroke-width: 0.8; stroke-linecap: square"/>
     </g>
     <g id="line2d_18">
      <defs>
       <path id="me8aed26b6e" d="M 0 0 
L -3.5 0 
" style="stroke: #000000; stroke-width: 0.8"/>
      </defs>
      <g>
       <use xlink:href="#me8aed26b6e" x="46.965625" y="354.958125" style="stroke: #000000; stroke-width: 0.8"/>
      </g>
     </g>
     <g id="text_10">
      <!-- 0 -->
      <g transform="translate(33.603125 358.757344) scale(0.1 -0.1)">
       <use xlink:href="#DejaVuSans-30"/>
      </g>
     </g>
    </g>
    <g id="ytick_2">
     <g id="line2d_19">
      <path d="M 46.965625 293.479852 
L 604.965625 293.479852 
" clip-path="url(#p3913bebc86)" style="fill: none; stroke: #b0b0b0; stroke-width: 0.8; stroke-linecap: square"/>
     </g>
     <g id="line2d_20">
      <g>
       <use xlink:href="#me8aed26b6e" x="46.965625" y="293.479852" style="stroke: #000000; stroke-width: 0.8"/>
      </g>
     </g>
     <g id="text_11">
      <!-- 100 -->
      <g transform="translate(20.878125 297.279071) scale(0.1 -0.1)">
       <use xlink:href="#DejaVuSans-31"/>
       <use xlink:href="#DejaVuSans-30" x="63.623047"/>
       <use xlink:href="#DejaVuSans-30" x="127.246094"/>
      </g>
     </g>
    </g>
    <g id="ytick_3">
     <g id="line2d_21">
      <path d="M 46.965625 232.00158 
L 604.965625 232.00158 
" clip-path="url(#p3913bebc86)" style="fill: none; stroke: #b0b0b0; stroke-width: 0.8; stroke-linecap: square"/>
     </g>
     <g id="line2d_22">
      <g>
       <use xlink:href="#me8aed26b6e" x="46.965625" y="232.00158" style="stroke: #000000; stroke-width: 0.8"/>
      </g>
     </g>
     <g id="text_12">
      <!-- 200 -->
      <g transform="translate(20.878125 235.800798) scale(0.1 -0.1)">
       <use xlink:href="#DejaVuSans-32"/>
       <use xlink:href="#DejaVuSans-30" x="63.623047"/>
       <use xlink:href="#DejaVuSans-30" x="127.246094"/>
      </g>
     </g>
    </g>
    <g id="ytick_4">
     <g id="line2d_23">
      <path d="M 46.965625 170.523307 
L 604.965625 170.523307 
" clip-path="url(#p3913bebc86)" style="fill: none; stroke: #b0b0b0; stroke-width: 0.8; stroke-linecap: square"/>
     </g>
     <g id="line2d_24">
      <g>
       <use xlink:href="#me8aed26b6e" x="46.965625" y="170.523307" style="stroke: #000000; stroke-width: 0.8"/>
      </g>
     </g>
     <g id="text_13">
      <!-- 300 -->
      <g transform="translate(20.878125 174.322526) scale(0.1 -0.1)">
       <defs>
        <path id="DejaVuSans-33" d="M 2597 2516 
Q 3050 2419 3304 2112 
Q 3559 1806 3559 1356 
Q 3559 666 3084 287 
Q 2609 -91 1734 -91 
Q 1441 -91 1130 -33 
Q 819 25 488 141 
L 488 750 
Q 750 597 1062 519 
Q 1375 441 1716 441 
Q 2309 441 2620 675 
Q 2931 909 2931 1356 
Q 2931 1769 2642 2001 
Q 2353 2234 1838 2234 
L 1294 2234 
L 1294 2753 
L 1863 2753 
Q 2328 2753 2575 2939 
Q 2822 3125 2822 3475 
Q 2822 3834 2567 4026 
Q 2313 4219 1838 4219 
Q 1578 4219 1281 4162 
Q 984 4106 628 3988 
L 628 4550 
Q 988 4650 1302 4700 
Q 1616 4750 1894 4750 
Q 2613 4750 3031 4423 
Q 3450 4097 3450 3541 
Q 3450 3153 3228 2886 
Q 3006 2619 2597 2516 
z
" transform="scale(0.015625)"/>
       </defs>
       <use xlink:href="#DejaVuSans-33"/>
       <use xlink:href="#DejaVuSans-30" x="63.623047"/>
       <use xlink:href="#DejaVuSans-30" x="127.246094"/>
      </g>
     </g>
    </g>
    <g id="ytick_5">
     <g id="line2d_25">
      <path d="M 46.965625 109.045034 
L 604.965625 109.045034 
" clip-path="url(#p3913bebc86)" style="fill: none; stroke: #b0b0b0; stroke-width: 0.8; stroke-linecap: square"/>
     </g>
     <g id="line2d_26">
      <g>
       <use xlink:href="#me8aed26b6e" x="46.965625" y="109.045034" style="stroke: #000000; stroke-width: 0.8"/>
      </g>
     </g>
     <g id="text_14">
      <!-- 400 -->
      <g transform="translate(20.878125 112.844253) scale(0.1 -0.1)">
       <use xlink:href="#DejaVuSans-34"/>
       <use xlink:href="#DejaVuSans-30" x="63.623047"/>
       <use xlink:href="#DejaVuSans-30" x="127.246094"/>
      </g>
     </g>
    </g>
    <g id="ytick_6">
     <g id="line2d_27">
      <path d="M 46.965625 47.566762 
L 604.965625 47.566762 
" clip-path="url(#p3913bebc86)" style="fill: none; stroke: #b0b0b0; stroke-width: 0.8; stroke-linecap: square"/>
     </g>
     <g id="line2d_28">
      <g>
       <use xlink:href="#me8aed26b6e" x="46.965625" y="47.566762" style="stroke: #000000; stroke-width: 0.8"/>
      </g>
     </g>
     <g id="text_15">
      <!-- 500 -->
      <g transform="translate(20.878125 51.36598) scale(0.1 -0.1)">
       <defs>
        <path id="DejaVuSans-35" d="M 691 4666 
L 3169 4666 
L 3169 4134 
L 1269 4134 
L 1269 2991 
Q 1406 3038 1543 3061 
Q 1681 3084 1819 3084 
Q 2600 3084 3056 2656 
Q 3513 2228 3513 1497 
Q 3513 744 3044 326 
Q 2575 -91 1722 -91 
Q 1428 -91 1123 -41 
Q 819 9 494 109 
L 494 744 
Q 775 591 1075 516 
Q 1375 441 1709 441 
Q 2250 441 2565 725 
Q 2881 1009 2881 1497 
Q 2881 1984 2565 2268 
Q 2250 2553 1709 2553 
Q 1456 2553 1204 2497 
Q 953 2441 691 2322 
L 691 4666 
z
" transform="scale(0.015625)"/>
       </defs>
       <use xlink:href="#DejaVuSans-35"/>
       <use xlink:href="#DejaVuSans-30" x="63.623047"/>
       <use xlink:href="#DejaVuSans-30" x="127.246094"/>
      </g>
     </g>
    </g>
    <g id="text_16">
     <!-- Total Reflected Power (ppm) -->
     <g transform="translate(14.798438 258.827969) rotate(-90) scale(0.1 -0.1)">
      <defs>
       <path id="DejaVuSans-54" d="M -19 4666 
L 3928 4666 
L 3928 4134 
L 2272 4134 
L 2272 0 
L 1638 0 
L 1638 4134 
L -19 4134 
L -19 4666 
z
" transform="scale(0.015625)"/>
       <path id="DejaVuSans-6f" d="M 1959 3097 
Q 1497 3097 1228 2736 
Q 959 2375 959 1747 
Q 959 1119 1226 758 
Q 1494 397 1959 397 
Q 2419 397 2687 759 
Q 2956 1122 2956 1747 
Q 2956 2369 2687 2733 
Q 2419 3097 1959 3097 
z
M 1959 3584 
Q 2709 3584 3137 3096 
Q 3566 2609 3566 1747 
Q 3566 888 3137 398 
Q 2709 -91 1959 -91 
Q 1206 -91 779 398 
Q 353 888 353 1747 
Q 353 2609 779 3096 
Q 1206 3584 1959 3584 
z
" transform="scale(0.015625)"/>
       <path id="DejaVuSans-74" d="M 1172 4494 
L 1172 3500 
L 2356 3500 
L 2356 3053 
L 1172 3053 
L 1172 1153 
Q 1172 725 1289 603 
Q 1406 481 1766 481 
L 2356 481 
L 2356 0 
L 1766 0 
Q 1100 0 847 248 
Q 594 497 594 1153 
L 594 3053 
L 172 3053 
L 172 3500 
L 594 3500 
L 594 4494 
L 1172 4494 
z
" transform="scale(0.015625)"/>
       <path id="DejaVuSans-61" d="M 2194 1759 
Q 1497 1759 1228 1600 
Q 959 1441 959 1056 
Q 959 750 1161 570 
Q 1363 391 1709 391 
Q 2188 391 2477 730 
Q 2766 1069 2766 1631 
L 2766 1759 
L 2194 1759 
z
M 3341 1997 
L 3341 0 
L 2766 0 
L 2766 531 
Q 2569 213 2275 61 
Q 1981 -91 1556 -91 
Q 1019 -91 701 211 
Q 384 513 384 1019 
Q 384 1609 779 1909 
Q 1175 2209 1959 2209 
L 2766 2209 
L 2766 2266 
Q 2766 2663 2505 2880 
Q 2244 3097 1772 3097 
Q 1472 3097 1187 3025 
Q 903 2953 641 2809 
L 641 3341 
Q 956 3463 1253 3523 
Q 1550 3584 1831 3584 
Q 2591 3584 2966 3190 
Q 3341 2797 3341 1997 
z
" transform="scale(0.015625)"/>
       <path id="DejaVuSans-6c" d="M 603 4863 
L 1178 4863 
L 1178 0 
L 603 0 
L 603 4863 
z
" transform="scale(0.015625)"/>
       <path id="DejaVuSans-20" transform="scale(0.015625)"/>
       <path id="DejaVuSans-52" d="M 2841 2188 
Q 3044 2119 3236 1894 
Q 3428 1669 3622 1275 
L 4263 0 
L 3584 0 
L 2988 1197 
Q 2756 1666 2539 1819 
Q 2322 1972 1947 1972 
L 1259 1972 
L 1259 0 
L 628 0 
L 628 4666 
L 2053 4666 
Q 2853 4666 3247 4331 
Q 3641 3997 3641 3322 
Q 3641 2881 3436 2590 
Q 3231 2300 2841 2188 
z
M 1259 4147 
L 1259 2491 
L 2053 2491 
Q 2509 2491 2742 2702 
Q 2975 2913 2975 3322 
Q 2975 3731 2742 3939 
Q 2509 4147 2053 4147 
L 1259 4147 
z
" transform="scale(0.015625)"/>
       <path id="DejaVuSans-65" d="M 3597 1894 
L 3597 1613 
L 953 1613 
Q 991 1019 1311 708 
Q 1631 397 2203 397 
Q 2534 397 2845 478 
Q 3156 559 3463 722 
L 3463 178 
Q 3153 47 2828 -22 
Q 2503 -91 2169 -91 
Q 1331 -91 842 396 
Q 353 884 353 1716 
Q 353 2575 817 3079 
Q 1281 3584 2069 3584 
Q 2775 3584 3186 3129 
Q 3597 2675 3597 1894 
z
M 3022 2063 
Q 3016 2534 2758 2815 
Q 2500 3097 2075 3097 
Q 1594 3097 1305 2825 
Q 1016 2553 972 2059 
L 3022 2063 
z
" transform="scale(0.015625)"/>
       <path id="DejaVuSans-66" d="M 2375 4863 
L 2375 4384 
L 1825 4384 
Q 1516 4384 1395 4259 
Q 1275 4134 1275 3809 
L 1275 3500 
L 2222 3500 
L 2222 3053 
L 1275 3053 
L 1275 0 
L 697 0 
L 697 3053 
L 147 3053 
L 147 3500 
L 697 3500 
L 697 3744 
Q 697 4328 969 4595 
Q 1241 4863 1831 4863 
L 2375 4863 
z
" transform="scale(0.015625)"/>
       <path id="DejaVuSans-63" d="M 3122 3366 
L 3122 2828 
Q 2878 2963 2633 3030 
Q 2388 3097 2138 3097 
Q 1578 3097 1268 2742 
Q 959 2388 959 1747 
Q 959 1106 1268 751 
Q 1578 397 2138 397 
Q 2388 397 2633 464 
Q 2878 531 3122 666 
L 3122 134 
Q 2881 22 2623 -34 
Q 2366 -91 2075 -91 
Q 1284 -91 818 406 
Q 353 903 353 1747 
Q 353 2603 823 3093 
Q 1294 3584 2113 3584 
Q 2378 3584 2631 3529 
Q 2884 3475 3122 3366 
z
" transform="scale(0.015625)"/>
       <path id="DejaVuSans-64" d="M 2906 2969 
L 2906 4863 
L 3481 4863 
L 3481 0 
L 2906 0 
L 2906 525 
Q 2725 213 2448 61 
Q 2172 -91 1784 -91 
Q 1150 -91 751 415 
Q 353 922 353 1747 
Q 353 2572 751 3078 
Q 1150 3584 1784 3584 
Q 2172 3584 2448 3432 
Q 2725 3281 2906 2969 
z
M 947 1747 
Q 947 1113 1208 752 
Q 1469 391 1925 391 
Q 2381 391 2643 752 
Q 2906 1113 2906 1747 
Q 2906 2381 2643 2742 
Q 2381 3103 1925 3103 
Q 1469 3103 1208 2742 
Q 947 2381 947 1747 
z
" transform="scale(0.015625)"/>
       <path id="DejaVuSans-50" d="M 1259 4147 
L 1259 2394 
L 2053 2394 
Q 2494 2394 2734 2622 
Q 2975 2850 2975 3272 
Q 2975 3691 2734 3919 
Q 2494 4147 2053 4147 
L 1259 4147 
z
M 628 4666 
L 2053 4666 
Q 2838 4666 3239 4311 
Q 3641 3956 3641 3272 
Q 3641 2581 3239 2228 
Q 2838 1875 2053 1875 
L 1259 1875 
L 1259 0 
L 628 0 
L 628 4666 
z
" transform="scale(0.015625)"/>
       <path id="DejaVuSans-77" d="M 269 3500 
L 844 3500 
L 1563 769 
L 2278 3500 
L 2956 3500 
L 3675 769 
L 4391 3500 
L 4966 3500 
L 4050 0 
L 3372 0 
L 2619 2869 
L 1863 0 
L 1184 0 
L 269 3500 
z
" transform="scale(0.015625)"/>
       <path id="DejaVuSans-72" d="M 2631 2963 
Q 2534 3019 2420 3045 
Q 2306 3072 2169 3072 
Q 1681 3072 1420 2755 
Q 1159 2438 1159 1844 
L 1159 0 
L 581 0 
L 581 3500 
L 1159 3500 
L 1159 2956 
Q 1341 3275 1631 3429 
Q 1922 3584 2338 3584 
Q 2397 3584 2469 3576 
Q 2541 3569 2628 3553 
L 2631 2963 
z
" transform="scale(0.015625)"/>
       <path id="DejaVuSans-28" d="M 1984 4856 
Q 1566 4138 1362 3434 
Q 1159 2731 1159 2009 
Q 1159 1288 1364 580 
Q 1569 -128 1984 -844 
L 1484 -844 
Q 1016 -109 783 600 
Q 550 1309 550 2009 
Q 550 2706 781 3412 
Q 1013 4119 1484 4856 
L 1984 4856 
z
" transform="scale(0.015625)"/>
       <path id="DejaVuSans-70" d="M 1159 525 
L 1159 -1331 
L 581 -1331 
L 581 3500 
L 1159 3500 
L 1159 2969 
Q 1341 3281 1617 3432 
Q 1894 3584 2278 3584 
Q 2916 3584 3314 3078 
Q 3713 2572 3713 1747 
Q 3713 922 3314 415 
Q 2916 -91 2278 -91 
Q 1894 -91 1617 61 
Q 1341 213 1159 525 
z
M 3116 1747 
Q 3116 2381 2855 2742 
Q 2594 3103 2138 3103 
Q 1681 3103 1420 2742 
Q 1159 2381 1159 1747 
Q 1159 1113 1420 752 
Q 1681 391 2138 391 
Q 2594 391 2855 752 
Q 3116 1113 3116 1747 
z
" transform="scale(0.015625)"/>
       <path id="DejaVuSans-6d" d="M 3328 2828 
Q 3544 3216 3844 3400 
Q 4144 3584 4550 3584 
Q 5097 3584 5394 3201 
Q 5691 2819 5691 2113 
L 5691 0 
L 5113 0 
L 5113 2094 
Q 5113 2597 4934 2840 
Q 4756 3084 4391 3084 
Q 3944 3084 3684 2787 
Q 3425 2491 3425 1978 
L 3425 0 
L 2847 0 
L 2847 2094 
Q 2847 2600 2669 2842 
Q 2491 3084 2119 3084 
Q 1678 3084 1418 2786 
Q 1159 2488 1159 1978 
L 1159 0 
L 581 0 
L 581 3500 
L 1159 3500 
L 1159 2956 
Q 1356 3278 1631 3431 
Q 1906 3584 2284 3584 
Q 2666 3584 2933 3390 
Q 3200 3197 3328 2828 
z
" transform="scale(0.015625)"/>
       <path id="DejaVuSans-29" d="M 513 4856 
L 1013 4856 
Q 1481 4119 1714 3412 
Q 1947 2706 1947 2009 
Q 1947 1309 1714 600 
Q 1481 -109 1013 -844 
L 513 -844 
Q 928 -128 1133 580 
Q 1338 1288 1338 2009 
Q 1338 2731 1133 3434 
Q 928 4138 513 4856 
z
" transform="scale(0.015625)"/>
      </defs>
      <use xlink:href="#DejaVuSans-54"/>
      <use xlink:href="#DejaVuSans-6f" x="44.083984"/>
      <use xlink:href="#DejaVuSans-74" x="105.265625"/>
      <use xlink:href="#DejaVuSans-61" x="144.474609"/>
      <use xlink:href="#DejaVuSans-6c" x="205.753906"/>
      <use xlink:href="#DejaVuSans-20" x="233.537109"/>
      <use xlink:href="#DejaVuSans-52" x="265.324219"/>
      <use xlink:href="#DejaVuSans-65" x="330.306641"/>
      <use xlink:href="#DejaVuSans-66" x="391.830078"/>
      <use xlink:href="#DejaVuSans-6c" x="427.035156"/>
      <use xlink:href="#DejaVuSans-65" x="454.818359"/>
      <use xlink:href="#DejaVuSans-63" x="516.341797"/>
      <use xlink:href="#DejaVuSans-74" x="571.322266"/>
      <use xlink:href="#DejaVuSans-65" x="610.53125"/>
      <use xlink:href="#DejaVuSans-64" x="672.054688"/>
      <use xlink:href="#DejaVuSans-20" x="735.53125"/>
      <use xlink:href="#DejaVuSans-50" x="767.318359"/>
      <use xlink:href="#DejaVuSans-6f" x="823.996094"/>
      <use xlink:href="#DejaVuSans-77" x="885.177734"/>
      <use xlink:href="#DejaVuSans-65" x="966.964844"/>
      <use xlink:href="#DejaVuSans-72" x="1028.488281"/>
      <use xlink:href="#DejaVuSans-20" x="1069.601562"/>
      <use xlink:href="#DejaVuSans-28" x="1101.388672"/>
      <use xlink:href="#DejaVuSans-70" x="1140.402344"/>
      <use xlink:href="#DejaVuSans-70" x="1203.878906"/>
      <use xlink:href="#DejaVuSans-6d" x="1267.355469"/>
      <use xlink:href="#DejaVuSans-29" x="1364.767578"/>
     </g>
    </g>
   </g>
   <g id="line2d_29">
    <path d="M 72.329261 285.523872 
L 77.453228 285.653461 
L 82.577195 285.768685 
L 87.701162 285.870384 
L 92.825129 285.959328 
L 97.949096 286.036215 
L 103.073063 286.101673 
L 108.19703 286.15626 
L 113.320997 286.200465 
L 118.444964 286.234713 
L 123.568931 286.259369 
L 128.692898 286.274741 
L 133.816865 286.281085 
L 138.940832 286.27861 
L 144.064799 286.267483 
L 149.188765 286.247832 
L 154.312732 286.219752 
L 159.436699 286.183304 
L 164.560666 286.138527 
L 169.684633 286.085434 
L 174.8086 286.024015 
L 179.932567 285.954243 
L 185.056534 285.876075 
L 190.180501 285.789449 
L 195.304468 285.694293 
L 200.428435 285.590518 
L 205.552402 285.478024 
L 210.676369 285.3567 
L 215.800336 285.226423 
L 220.924303 285.087058 
L 226.04827 284.93846 
L 231.172237 284.780475 
L 236.296204 284.612936 
L 241.42017 284.435667 
L 246.544137 284.248483 
L 251.668104 284.051188 
L 256.792071 283.843576 
L 261.916038 283.625433 
L 267.040005 283.396535 
L 272.163972 283.15665 
L 277.287939 282.905536 
L 282.411906 282.642945 
L 287.535873 282.368618 
L 292.65984 282.082291 
L 297.783807 281.783691 
L 302.907774 281.472537 
L 308.031741 281.148543 
L 313.155708 280.811415 
L 318.279675 280.460853 
L 323.403642 280.096549 
L 328.527608 279.718192 
L 333.651575 279.325462 
L 338.775542 278.918035 
L 343.899509 278.495579 
L 349.023476 278.05776 
L 354.147443 277.604234 
L 359.27141 277.134656 
L 364.395377 276.648672 
L 369.519344 276.145927 
L 374.643311 275.626056 
L 379.767278 275.088692 
L 384.891245 274.533464 
L 390.015212 273.959993 
L 395.139179 273.367898 
L 400.263146 272.756791 
L 405.387113 272.126282 
L 410.51108 271.475975 
L 415.635046 270.805469 
L 420.759013 270.114359 
L 425.88298 269.402236 
L 431.006947 268.668688 
L 436.130914 267.913296 
L 441.254881 267.135639 
L 446.378848 266.335292 
L 451.502815 265.511823 
L 456.626782 264.664799 
L 461.750749 263.793783 
L 466.874716 262.898331 
L 471.998683 261.977999 
L 477.12265 261.032337 
L 482.246617 260.06089 
L 487.370584 259.0632 
L 492.494551 258.038806 
L 497.618518 256.987241 
L 502.742485 255.908036 
L 507.866451 254.800716 
L 512.990418 253.664804 
L 518.114385 252.499817 
L 523.238352 251.305268 
L 528.362319 250.080666 
L 533.486286 248.825518 
L 538.610253 247.539323 
L 543.73422 246.221579 
L 548.858187 244.871779 
L 553.982154 243.48941 
L 559.106121 242.073958 
L 564.230088 240.624902 
L 569.354055 239.14172 
L 574.478022 237.623884 
L 579.601989 236.070863 
" clip-path="url(#p3913bebc86)" style="fill: none; stroke: #1f77b4; stroke-width: 1.5; stroke-linecap: square"/>
   </g>
   <g id="line2d_30">
    <path d="M 72.329261 286.279386 
L 77.453228 286.285685 
L 82.577195 286.276521 
L 87.701162 286.252248 
L 92.825129 286.213107 
L 97.949096 286.159248 
L 103.073063 286.090739 
L 108.19703 286.00758 
L 113.320997 285.909712 
L 118.444964 285.797027 
L 123.568931 285.669372 
L 128.692898 285.526555 
L 133.816865 285.368346 
L 138.940832 285.194483 
L 144.064799 285.00467 
L 149.188765 284.79858 
L 154.312732 284.575855 
L 159.436699 284.336108 
L 164.560666 284.078924 
L 169.684633 283.803857 
L 174.8086 283.510437 
L 179.932567 283.198166 
L 185.056534 282.866523 
L 190.180501 282.514961 
L 195.304468 282.142913 
L 200.428435 281.749789 
L 205.552402 281.334979 
L 210.676369 280.897856 
L 215.800336 280.437774 
L 220.924303 279.95407 
L 226.04827 279.446066 
L 231.172237 278.913067 
L 236.296204 278.354365 
L 241.42017 277.769239 
L 246.544137 277.156953 
L 251.668104 276.51676 
L 256.792071 275.847899 
L 261.916038 275.149598 
L 267.040005 274.421073 
L 272.163972 273.66153 
L 277.287939 272.870165 
L 282.411906 272.046161 
L 287.535873 271.188694 
L 292.65984 270.29693 
L 297.783807 269.370025 
L 302.907774 268.407128 
L 308.031741 267.407378 
L 313.155708 266.369909 
L 318.279675 265.293843 
L 323.403642 264.1783 
L 328.527608 263.02239 
L 333.651575 261.825216 
L 338.775542 260.585876 
L 343.899509 259.303463 
L 349.023476 257.97706 
L 354.147443 256.605748 
L 359.27141 255.188599 
L 364.395377 253.724681 
L 369.519344 252.213055 
L 374.643311 250.652778 
L 379.767278 249.042898 
L 384.891245 247.382459 
L 390.015212 245.670499 
L 395.139179 243.906047 
L 400.263146 242.08813 
L 405.387113 240.215764 
L 410.51108 238.287963 
L 415.635046 236.303731 
L 420.759013 234.262068 
L 425.88298 232.161967 
L 431.006947 230.002415 
L 436.130914 227.782392 
L 441.254881 225.500875 
L 446.378848 223.156834 
L 451.502815 220.749238 
L 456.626782 218.277048 
L 461.750749 215.739225 
L 466.874716 213.134729 
L 471.998683 210.462517 
L 477.12265 207.721549 
L 482.246617 204.910786 
L 487.370584 202.029192 
L 492.494551 199.075739 
L 497.618518 196.049404 
L 502.742485 192.949175 
L 507.866451 189.774049 
L 512.990418 186.52304 
L 518.114385 183.195177 
L 523.238352 179.789507 
L 528.362319 176.305098 
L 533.486286 172.741043 
L 538.610253 169.096463 
L 543.73422 165.370505 
L 548.858187 161.562351 
L 553.982154 157.671219 
L 559.106121 153.696362 
L 564.230088 149.637076 
L 569.354055 145.4927 
L 574.478022 141.262621 
L 579.601989 136.946274 
" clip-path="url(#p3913bebc86)" style="fill: none; stroke: #ff7f0e; stroke-width: 1.5; stroke-linecap: square"/>
   </g>
   <g id="line2d_31">
    <path d="M 72.329261 285.178338 
L 77.453228 285.332977 
L 82.577195 285.473249 
L 87.701162 285.599951 
L 92.825129 285.713841 
L 97.949096 285.815628 
L 103.073063 285.905972 
L 108.19703 285.98548 
L 113.320997 286.054705 
L 118.444964 286.114145 
L 123.568931 286.164249 
L 128.692898 286.205412 
L 133.816865 286.237982 
L 138.940832 286.262262 
L 144.064799 286.278512 
L 149.188765 286.286952 
L 154.312732 286.287766 
L 159.436699 286.281107 
L 164.560666 286.267096 
L 169.684633 286.245827 
L 174.8086 286.217372 
L 179.932567 286.18178 
L 185.056534 286.139082 
L 190.180501 286.089291 
L 195.304468 286.032406 
L 200.428435 285.968412 
L 205.552402 285.897281 
L 210.676369 285.818975 
L 215.800336 285.733445 
L 220.924303 285.640636 
L 226.04827 285.540479 
L 231.172237 285.4329 
L 236.296204 285.317818 
L 241.42017 285.195142 
L 246.544137 285.064775 
L 251.668104 284.926612 
L 256.792071 284.780543 
L 261.916038 284.626449 
L 267.040005 284.464206 
L 272.163972 284.293681 
L 277.287939 284.114737 
L 282.411906 283.92723 
L 287.535873 283.73101 
L 292.65984 283.525919 
L 297.783807 283.311796 
L 302.907774 283.088473 
L 308.031741 282.855777 
L 313.155708 282.613529 
L 318.279675 282.361547 
L 323.403642 282.099643 
L 328.527608 281.827623 
L 333.651575 281.545292 
L 338.775542 281.252447 
L 343.899509 280.948885 
L 349.023476 280.634397 
L 354.147443 280.30877 
L 359.27141 279.971788 
L 364.395377 279.623234 
L 369.519344 279.262884 
L 374.643311 278.890514 
L 379.767278 278.505895 
L 384.891245 278.108797 
L 390.015212 277.698986 
L 395.139179 277.276227 
L 400.263146 276.84028 
L 405.387113 276.390905 
L 410.51108 275.927857 
L 415.635046 275.450892 
L 420.759013 274.959761 
L 425.88298 274.454214 
L 431.006947 273.933998 
L 436.130914 273.398861 
L 441.254881 272.848544 
L 446.378848 272.282792 
L 451.502815 271.701342 
L 456.626782 271.103935 
L 461.750749 270.490306 
L 466.874716 269.860192 
L 471.998683 269.213324 
L 477.12265 268.549437 
L 482.246617 267.86826 
L 487.370584 267.169523 
L 492.494551 266.452955 
L 497.618518 265.718282 
L 502.742485 264.96523 
L 507.866451 264.193525 
L 512.990418 263.402889 
L 518.114385 262.593047 
L 523.238352 261.763719 
L 528.362319 260.914628 
L 533.486286 260.045493 
L 538.610253 259.156034 
L 543.73422 258.24597 
L 548.858187 257.315019 
L 553.982154 256.362898 
L 559.106121 255.389323 
L 564.230088 254.394011 
L 569.354055 253.376677 
L 574.478022 252.337036 
L 579.601989 251.274802 
" clip-path="url(#p3913bebc86)" style="fill: none; stroke: #2ca02c; stroke-width: 1.5; stroke-linecap: square"/>
   </g>
   <g id="line2d_32">
    <path d="M 72.329261 284.872138 
L 77.453228 284.839598 
L 82.577195 284.784545 
L 87.701162 284.706794 
L 92.825129 284.606106 
L 97.949096 284.482187 
L 103.073063 284.33469 
L 108.19703 284.163207 
L 113.320997 283.967274 
L 118.444964 283.746374 
L 123.568931 283.499933 
L 128.692898 283.227327 
L 133.816865 282.927881 
L 138.940832 282.600872 
L 144.064799 282.245533 
L 149.188765 281.861051 
L 154.312732 281.446571 
L 159.436699 281.001199 
L 164.560666 280.524001 
L 169.684633 280.014009 
L 174.8086 279.470217 
L 179.932567 278.891588 
L 185.056534 278.277056 
L 190.180501 277.625522 
L 195.304468 276.935862 
L 200.428435 276.206927 
L 205.552402 275.437542 
L 210.676369 274.626512 
L 215.800336 273.772619 
L 220.924303 272.874624 
L 226.04827 271.931272 
L 231.172237 270.941285 
L 236.296204 269.903369 
L 241.42017 268.816213 
L 246.544137 267.678488 
L 251.668104 266.488844 
L 256.792071 265.245919 
L 261.916038 263.948329 
L 267.040005 262.594674 
L 272.163972 261.183537 
L 277.287939 259.713484 
L 282.411906 258.183064 
L 287.535873 256.590812 
L 292.65984 254.935247 
L 297.783807 253.214878 
L 302.907774 251.428202 
L 308.031741 249.57371 
L 313.155708 247.649889 
L 318.279675 245.655226 
L 323.403642 243.58821 
L 328.527608 241.447344 
L 333.651575 239.231144 
L 338.775542 236.938145 
L 343.899509 234.566915 
L 349.023476 232.116052 
L 354.147443 229.5842 
L 359.27141 226.970051 
L 364.395377 224.272357 
L 369.519344 221.489935 
L 374.643311 218.621674 
L 379.767278 215.666549 
L 384.891245 212.623621 
L 390.015212 209.492049 
L 395.139179 206.271098 
L 400.263146 202.960141 
L 405.387113 199.558669 
L 410.51108 196.066296 
L 415.635046 192.482762 
L 420.759013 188.807939 
L 425.88298 185.041831 
L 431.006947 181.184584 
L 436.130914 177.236478 
L 441.254881 173.197936 
L 446.378848 169.06952 
L 451.502815 164.851932 
L 456.626782 160.546012 
L 461.750749 156.152734 
L 466.874716 151.673208 
L 471.998683 147.108672 
L 477.12265 142.460489 
L 482.246617 137.730143 
L 487.370584 132.919234 
L 492.494551 128.029471 
L 497.618518 123.062667 
L 502.742485 118.02073 
L 507.866451 112.90566 
L 512.990418 107.71954 
L 518.114385 102.464529 
L 523.238352 97.142852 
L 528.362319 91.7568 
L 533.486286 86.308714 
L 538.610253 80.800981 
L 543.73422 75.236031 
L 548.858187 69.616321 
L 553.982154 63.944336 
L 559.106121 58.222578 
L 564.230088 52.453559 
L 569.354055 46.639798 
L 574.478022 40.783812 
L 579.601989 34.888108 
" clip-path="url(#p3913bebc86)" style="fill: none; stroke: #d62728; stroke-width: 1.5; stroke-linecap: square"/>
   </g>
   <g id="line2d_33">
    <path d="M 72.329261 285.075715 
L 77.453228 285.229937 
L 82.577195 285.370059 
L 87.701162 285.496803 
L 92.825129 285.610853 
L 97.949096 285.712849 
L 103.073063 285.803387 
L 108.19703 285.883014 
L 113.320997 285.952229 
L 118.444964 286.011482 
L 123.568931 286.061178 
L 128.692898 286.101678 
L 133.816865 286.133299 
L 138.940832 286.15632 
L 144.064799 286.170981 
L 149.188765 286.177488 
L 154.312732 286.176016 
L 159.436699 286.16671 
L 164.560666 286.149688 
L 169.684633 286.125043 
L 174.8086 286.092847 
L 179.932567 286.05315 
L 185.056534 286.005982 
L 190.180501 285.951359 
L 195.304468 285.889279 
L 200.428435 285.819724 
L 205.552402 285.742664 
L 210.676369 285.658057 
L 215.800336 285.565849 
L 220.924303 285.465972 
L 226.04827 285.358352 
L 231.172237 285.242903 
L 236.296204 285.119528 
L 241.42017 284.988126 
L 246.544137 284.848583 
L 251.668104 284.70078 
L 256.792071 284.544589 
L 261.916038 284.379876 
L 267.040005 284.2065 
L 272.163972 284.024313 
L 277.287939 283.83316 
L 282.411906 283.632881 
L 287.535873 283.423312 
L 292.65984 283.20428 
L 297.783807 282.975608 
L 302.907774 282.737116 
L 308.031741 282.488617 
L 313.155708 282.229919 
L 318.279675 281.960826 
L 323.403642 281.681139 
L 328.527608 281.390653 
L 333.651575 281.089158 
L 338.775542 280.776443 
L 343.899509 280.452292 
L 349.023476 280.116483 
L 354.147443 279.768793 
L 359.27141 279.408996 
L 364.395377 279.03686 
L 369.519344 278.652152 
L 374.643311 278.254635 
L 379.767278 277.84407 
L 384.891245 277.420213 
L 390.015212 276.98282 
L 395.139179 276.531641 
L 400.263146 276.066428 
L 405.387113 275.586926 
L 410.51108 275.09288 
L 415.635046 274.584034 
L 420.759013 274.060127 
L 425.88298 273.520897 
L 431.006947 272.966082 
L 436.130914 272.395415 
L 441.254881 271.80863 
L 446.378848 271.205458 
L 451.502815 270.585628 
L 456.626782 269.948869 
L 461.750749 269.294906 
L 466.874716 268.623466 
L 471.998683 267.934272 
L 477.12265 267.227046 
L 482.246617 266.501511 
L 487.370584 265.757385 
L 492.494551 264.99439 
L 497.618518 264.212241 
L 502.742485 263.410656 
L 507.866451 262.589352 
L 512.990418 261.748042 
L 518.114385 260.886441 
L 523.238352 260.004261 
L 528.362319 259.101215 
L 533.486286 258.177013 
L 538.610253 257.231365 
L 543.73422 256.263981 
L 548.858187 255.274569 
L 553.982154 254.262836 
L 559.106121 253.228489 
L 564.230088 252.171232 
L 569.354055 251.09077 
L 574.478022 249.986808 
L 579.601989 248.859048 
" clip-path="url(#p3913bebc86)" style="fill: none; stroke: #9467bd; stroke-width: 1.5; stroke-linecap: square"/>
   </g>
   <g id="patch_3">
    <path d="M 46.965625 354.958125 
L 46.965625 22.318125 
" style="fill: none; stroke: #000000; stroke-width: 0.8; stroke-linejoin: miter; stroke-linecap: square"/>
   </g>
   <g id="patch_4">
    <path d="M 604.965625 354.958125 
L 604.965625 22.318125 
" style="fill: none; stroke: #000000; stroke-width: 0.8; stroke-linejoin: miter; stroke-linecap: square"/>
   </g>
   <g id="patch_5">
    <path d="M 46.965625 354.958125 
L 604.965625 354.958125 
" style="fill: none; stroke: #000000; stroke-width: 0.8; stroke-linejoin: miter; stroke-linecap: square"/>
   </g>
   <g id="patch_6">
    <path d="M 46.965625 22.318125 
L 604.965625 22.318125 
" style="fill: none; stroke: #000000; stroke-width: 0.8; stroke-linejoin: miter; stroke-linecap: square"/>
   </g>
   <g id="text_17">
    <!-- Roundtrip losses vs NA for different lens designs -->
    <g transform="translate(180.52375 16.318125) scale(0.12 -0.12)">
     <defs>
      <path id="DejaVuSans-75" d="M 544 1381 
L 544 3500 
L 1119 3500 
L 1119 1403 
Q 1119 906 1312 657 
Q 1506 409 1894 409 
Q 2359 409 2629 706 
Q 2900 1003 2900 1516 
L 2900 3500 
L 3475 3500 
L 3475 0 
L 2900 0 
L 2900 538 
Q 2691 219 2414 64 
Q 2138 -91 1772 -91 
Q 1169 -91 856 284 
Q 544 659 544 1381 
z
M 1991 3584 
L 1991 3584 
z
" transform="scale(0.015625)"/>
      <path id="DejaVuSans-6e" d="M 3513 2113 
L 3513 0 
L 2938 0 
L 2938 2094 
Q 2938 2591 2744 2837 
Q 2550 3084 2163 3084 
Q 1697 3084 1428 2787 
Q 1159 2491 1159 1978 
L 1159 0 
L 581 0 
L 581 3500 
L 1159 3500 
L 1159 2956 
Q 1366 3272 1645 3428 
Q 1925 3584 2291 3584 
Q 2894 3584 3203 3211 
Q 3513 2838 3513 2113 
z
" transform="scale(0.015625)"/>
      <path id="DejaVuSans-69" d="M 603 3500 
L 1178 3500 
L 1178 0 
L 603 0 
L 603 3500 
z
M 603 4863 
L 1178 4863 
L 1178 4134 
L 603 4134 
L 603 4863 
z
" transform="scale(0.015625)"/>
      <path id="DejaVuSans-73" d="M 2834 3397 
L 2834 2853 
Q 2591 2978 2328 3040 
Q 2066 3103 1784 3103 
Q 1356 3103 1142 2972 
Q 928 2841 928 2578 
Q 928 2378 1081 2264 
Q 1234 2150 1697 2047 
L 1894 2003 
Q 2506 1872 2764 1633 
Q 3022 1394 3022 966 
Q 3022 478 2636 193 
Q 2250 -91 1575 -91 
Q 1294 -91 989 -36 
Q 684 19 347 128 
L 347 722 
Q 666 556 975 473 
Q 1284 391 1588 391 
Q 1994 391 2212 530 
Q 2431 669 2431 922 
Q 2431 1156 2273 1281 
Q 2116 1406 1581 1522 
L 1381 1569 
Q 847 1681 609 1914 
Q 372 2147 372 2553 
Q 372 3047 722 3315 
Q 1072 3584 1716 3584 
Q 2034 3584 2315 3537 
Q 2597 3491 2834 3397 
z
" transform="scale(0.015625)"/>
      <path id="DejaVuSans-76" d="M 191 3500 
L 800 3500 
L 1894 563 
L 2988 3500 
L 3597 3500 
L 2284 0 
L 1503 0 
L 191 3500 
z
" transform="scale(0.015625)"/>
      <path id="DejaVuSans-67" d="M 2906 1791 
Q 2906 2416 2648 2759 
Q 2391 3103 1925 3103 
Q 1463 3103 1205 2759 
Q 947 2416 947 1791 
Q 947 1169 1205 825 
Q 1463 481 1925 481 
Q 2391 481 2648 825 
Q 2906 1169 2906 1791 
z
M 3481 434 
Q 3481 -459 3084 -895 
Q 2688 -1331 1869 -1331 
Q 1566 -1331 1297 -1286 
Q 1028 -1241 775 -1147 
L 775 -588 
Q 1028 -725 1275 -790 
Q 1522 -856 1778 -856 
Q 2344 -856 2625 -561 
Q 2906 -266 2906 331 
L 2906 616 
Q 2728 306 2450 153 
Q 2172 0 1784 0 
Q 1141 0 747 490 
Q 353 981 353 1791 
Q 353 2603 747 3093 
Q 1141 3584 1784 3584 
Q 2172 3584 2450 3431 
Q 2728 3278 2906 2969 
L 2906 3500 
L 3481 3500 
L 3481 434 
z
" transform="scale(0.015625)"/>
     </defs>
     <use xlink:href="#DejaVuSans-52"/>
     <use xlink:href="#DejaVuSans-6f" x="64.982422"/>
     <use xlink:href="#DejaVuSans-75" x="126.164062"/>
     <use xlink:href="#DejaVuSans-6e" x="189.542969"/>
     <use xlink:href="#DejaVuSans-64" x="252.921875"/>
     <use xlink:href="#DejaVuSans-74" x="316.398438"/>
     <use xlink:href="#DejaVuSans-72" x="355.607422"/>
     <use xlink:href="#DejaVuSans-69" x="396.720703"/>
     <use xlink:href="#DejaVuSans-70" x="424.503906"/>
     <use xlink:href="#DejaVuSans-20" x="487.980469"/>
     <use xlink:href="#DejaVuSans-6c" x="519.767578"/>
     <use xlink:href="#DejaVuSans-6f" x="547.550781"/>
     <use xlink:href="#DejaVuSans-73" x="608.732422"/>
     <use xlink:href="#DejaVuSans-73" x="660.832031"/>
     <use xlink:href="#DejaVuSans-65" x="712.931641"/>
     <use xlink:href="#DejaVuSans-73" x="774.455078"/>
     <use xlink:href="#DejaVuSans-20" x="826.554688"/>
     <use xlink:href="#DejaVuSans-76" x="858.341797"/>
     <use xlink:href="#DejaVuSans-73" x="917.521484"/>
     <use xlink:href="#DejaVuSans-20" x="969.621094"/>
     <use xlink:href="#DejaVuSans-4e" x="1001.408203"/>
     <use xlink:href="#DejaVuSans-41" x="1076.212891"/>
     <use xlink:href="#DejaVuSans-20" x="1144.621094"/>
     <use xlink:href="#DejaVuSans-66" x="1176.408203"/>
     <use xlink:href="#DejaVuSans-6f" x="1211.613281"/>
     <use xlink:href="#DejaVuSans-72" x="1272.794922"/>
     <use xlink:href="#DejaVuSans-20" x="1313.908203"/>
     <use xlink:href="#DejaVuSans-64" x="1345.695312"/>
     <use xlink:href="#DejaVuSans-69" x="1409.171875"/>
     <use xlink:href="#DejaVuSans-66" x="1436.955078"/>
     <use xlink:href="#DejaVuSans-66" x="1472.160156"/>
     <use xlink:href="#DejaVuSans-65" x="1507.365234"/>
     <use xlink:href="#DejaVuSans-72" x="1568.888672"/>
     <use xlink:href="#DejaVuSans-65" x="1607.751953"/>
     <use xlink:href="#DejaVuSans-6e" x="1669.275391"/>
     <use xlink:href="#DejaVuSans-74" x="1732.654297"/>
     <use xlink:href="#DejaVuSans-20" x="1771.863281"/>
     <use xlink:href="#DejaVuSans-6c" x="1803.650391"/>
     <use xlink:href="#DejaVuSans-65" x="1831.433594"/>
     <use xlink:href="#DejaVuSans-6e" x="1892.957031"/>
     <use xlink:href="#DejaVuSans-73" x="1956.335938"/>
     <use xlink:href="#DejaVuSans-20" x="2008.435547"/>
     <use xlink:href="#DejaVuSans-64" x="2040.222656"/>
     <use xlink:href="#DejaVuSans-65" x="2103.699219"/>
     <use xlink:href="#DejaVuSans-73" x="2165.222656"/>
     <use xlink:href="#DejaVuSans-69" x="2217.322266"/>
     <use xlink:href="#DejaVuSans-67" x="2245.105469"/>
     <use xlink:href="#DejaVuSans-6e" x="2308.582031"/>
     <use xlink:href="#DejaVuSans-73" x="2371.960938"/>
    </g>
   </g>
   <g id="legend_1">
    <g id="patch_7">
     <path d="M 53.965625 103.70875 
L 214.621875 103.70875 
Q 216.621875 103.70875 216.621875 101.70875 
L 216.621875 29.318125 
Q 216.621875 27.318125 214.621875 27.318125 
L 53.965625 27.318125 
Q 51.965625 27.318125 51.965625 29.318125 
L 51.965625 101.70875 
Q 51.965625 103.70875 53.965625 103.70875 
z
" style="fill: #ffffff; opacity: 0.8; stroke: #cccccc; stroke-linejoin: miter"/>
    </g>
    <g id="line2d_34">
     <path d="M 55.965625 35.416562 
L 65.965625 35.416562 
L 75.965625 35.416562 
" style="fill: none; stroke: #1f77b4; stroke-width: 1.5; stroke-linecap: square"/>
    </g>
    <g id="text_18">
     <!-- Avantier one side (n=1.8) -->
     <g transform="translate(83.965625 38.916562) scale(0.1 -0.1)">
      <defs>
       <path id="DejaVuSans-3d" d="M 678 2906 
L 4684 2906 
L 4684 2381 
L 678 2381 
L 678 2906 
z
M 678 1631 
L 4684 1631 
L 4684 1100 
L 678 1100 
L 678 1631 
z
" transform="scale(0.015625)"/>
      </defs>
      <use xlink:href="#DejaVuSans-41"/>
      <use xlink:href="#DejaVuSans-76" x="62.533203"/>
      <use xlink:href="#DejaVuSans-61" x="121.712891"/>
      <use xlink:href="#DejaVuSans-6e" x="182.992188"/>
      <use xlink:href="#DejaVuSans-74" x="246.371094"/>
      <use xlink:href="#DejaVuSans-69" x="285.580078"/>
      <use xlink:href="#DejaVuSans-65" x="313.363281"/>
      <use xlink:href="#DejaVuSans-72" x="374.886719"/>
      <use xlink:href="#DejaVuSans-20" x="416"/>
      <use xlink:href="#DejaVuSans-6f" x="447.787109"/>
      <use xlink:href="#DejaVuSans-6e" x="508.96875"/>
      <use xlink:href="#DejaVuSans-65" x="572.347656"/>
      <use xlink:href="#DejaVuSans-20" x="633.871094"/>
      <use xlink:href="#DejaVuSans-73" x="665.658203"/>
      <use xlink:href="#DejaVuSans-69" x="717.757812"/>
      <use xlink:href="#DejaVuSans-64" x="745.541016"/>
      <use xlink:href="#DejaVuSans-65" x="809.017578"/>
      <use xlink:href="#DejaVuSans-20" x="870.541016"/>
      <use xlink:href="#DejaVuSans-28" x="902.328125"/>
      <use xlink:href="#DejaVuSans-6e" x="941.341797"/>
      <use xlink:href="#DejaVuSans-3d" x="1004.720703"/>
      <use xlink:href="#DejaVuSans-31" x="1088.509766"/>
      <use xlink:href="#DejaVuSans-2e" x="1152.132812"/>
      <use xlink:href="#DejaVuSans-38" x="1183.919922"/>
      <use xlink:href="#DejaVuSans-29" x="1247.542969"/>
     </g>
    </g>
    <g id="line2d_35">
     <path d="M 55.965625 50.094688 
L 65.965625 50.094688 
L 75.965625 50.094688 
" style="fill: none; stroke: #ff7f0e; stroke-width: 1.5; stroke-linecap: square"/>
    </g>
    <g id="text_19">
     <!-- perfect aspheric n=1.45 -->
     <g transform="translate(83.965625 53.594688) scale(0.1 -0.1)">
      <defs>
       <path id="DejaVuSans-68" d="M 3513 2113 
L 3513 0 
L 2938 0 
L 2938 2094 
Q 2938 2591 2744 2837 
Q 2550 3084 2163 3084 
Q 1697 3084 1428 2787 
Q 1159 2491 1159 1978 
L 1159 0 
L 581 0 
L 581 4863 
L 1159 4863 
L 1159 2956 
Q 1366 3272 1645 3428 
Q 1925 3584 2291 3584 
Q 2894 3584 3203 3211 
Q 3513 2838 3513 2113 
z
" transform="scale(0.015625)"/>
      </defs>
      <use xlink:href="#DejaVuSans-70"/>
      <use xlink:href="#DejaVuSans-65" x="63.476562"/>
      <use xlink:href="#DejaVuSans-72" x="125"/>
      <use xlink:href="#DejaVuSans-66" x="166.113281"/>
      <use xlink:href="#DejaVuSans-65" x="201.318359"/>
      <use xlink:href="#DejaVuSans-63" x="262.841797"/>
      <use xlink:href="#DejaVuSans-74" x="317.822266"/>
      <use xlink:href="#DejaVuSans-20" x="357.03125"/>
      <use xlink:href="#DejaVuSans-61" x="388.818359"/>
      <use xlink:href="#DejaVuSans-73" x="450.097656"/>
      <use xlink:href="#DejaVuSans-70" x="502.197266"/>
      <use xlink:href="#DejaVuSans-68" x="565.673828"/>
      <use xlink:href="#DejaVuSans-65" x="629.052734"/>
      <use xlink:href="#DejaVuSans-72" x="690.576172"/>
      <use xlink:href="#DejaVuSans-69" x="731.689453"/>
      <use xlink:href="#DejaVuSans-63" x="759.472656"/>
      <use xlink:href="#DejaVuSans-20" x="814.453125"/>
      <use xlink:href="#DejaVuSans-6e" x="846.240234"/>
      <use xlink:href="#DejaVuSans-3d" x="909.619141"/>
      <use xlink:href="#DejaVuSans-31" x="993.408203"/>
      <use xlink:href="#DejaVuSans-2e" x="1057.03125"/>
      <use xlink:href="#DejaVuSans-34" x="1088.818359"/>
      <use xlink:href="#DejaVuSans-35" x="1152.441406"/>
     </g>
    </g>
    <g id="line2d_36">
     <path d="M 55.965625 64.772812 
L 65.965625 64.772812 
L 75.965625 64.772812 
" style="fill: none; stroke: #2ca02c; stroke-width: 1.5; stroke-linecap: square"/>
    </g>
    <g id="text_20">
     <!-- perfect aspheric n=1.8 -->
     <g transform="translate(83.965625 68.272812) scale(0.1 -0.1)">
      <use xlink:href="#DejaVuSans-70"/>
      <use xlink:href="#DejaVuSans-65" x="63.476562"/>
      <use xlink:href="#DejaVuSans-72" x="125"/>
      <use xlink:href="#DejaVuSans-66" x="166.113281"/>
      <use xlink:href="#DejaVuSans-65" x="201.318359"/>
      <use xlink:href="#DejaVuSans-63" x="262.841797"/>
      <use xlink:href="#DejaVuSans-74" x="317.822266"/>
      <use xlink:href="#DejaVuSans-20" x="357.03125"/>
      <use xlink:href="#DejaVuSans-61" x="388.818359"/>
      <use xlink:href="#DejaVuSans-73" x="450.097656"/>
      <use xlink:href="#DejaVuSans-70" x="502.197266"/>
      <use xlink:href="#DejaVuSans-68" x="565.673828"/>
      <use xlink:href="#DejaVuSans-65" x="629.052734"/>
      <use xlink:href="#DejaVuSans-72" x="690.576172"/>
      <use xlink:href="#DejaVuSans-69" x="731.689453"/>
      <use xlink:href="#DejaVuSans-63" x="759.472656"/>
      <use xlink:href="#DejaVuSans-20" x="814.453125"/>
      <use xlink:href="#DejaVuSans-6e" x="846.240234"/>
      <use xlink:href="#DejaVuSans-3d" x="909.619141"/>
      <use xlink:href="#DejaVuSans-31" x="993.408203"/>
      <use xlink:href="#DejaVuSans-2e" x="1057.03125"/>
      <use xlink:href="#DejaVuSans-38" x="1088.818359"/>
     </g>
    </g>
    <g id="line2d_37">
     <path d="M 55.965625 79.450938 
L 65.965625 79.450938 
L 75.965625 79.450938 
" style="fill: none; stroke: #d62728; stroke-width: 1.5; stroke-linecap: square"/>
    </g>
    <g id="text_21">
     <!-- D n=1.45 -->
     <g transform="translate(83.965625 82.950938) scale(0.1 -0.1)">
      <defs>
       <path id="DejaVuSans-44" d="M 1259 4147 
L 1259 519 
L 2022 519 
Q 2988 519 3436 956 
Q 3884 1394 3884 2338 
Q 3884 3275 3436 3711 
Q 2988 4147 2022 4147 
L 1259 4147 
z
M 628 4666 
L 1925 4666 
Q 3281 4666 3915 4102 
Q 4550 3538 4550 2338 
Q 4550 1131 3912 565 
Q 3275 0 1925 0 
L 628 0 
L 628 4666 
z
" transform="scale(0.015625)"/>
      </defs>
      <use xlink:href="#DejaVuSans-44"/>
      <use xlink:href="#DejaVuSans-20" x="77.001953"/>
      <use xlink:href="#DejaVuSans-6e" x="108.789062"/>
      <use xlink:href="#DejaVuSans-3d" x="172.167969"/>
      <use xlink:href="#DejaVuSans-31" x="255.957031"/>
      <use xlink:href="#DejaVuSans-2e" x="319.580078"/>
      <use xlink:href="#DejaVuSans-34" x="351.367188"/>
      <use xlink:href="#DejaVuSans-35" x="414.990234"/>
     </g>
    </g>
    <g id="line2d_38">
     <path d="M 55.965625 94.129063 
L 65.965625 94.129063 
L 75.965625 94.129063 
" style="fill: none; stroke: #9467bd; stroke-width: 1.5; stroke-linecap: square"/>
    </g>
    <g id="text_22">
     <!-- D n=1.8 -->
     <g transform="translate(83.965625 97.629063) scale(0.1 -0.1)">
      <use xlink:href="#DejaVuSans-44"/>
      <use xlink:href="#DejaVuSans-20" x="77.001953"/>
      <use xlink:href="#DejaVuSans-6e" x="108.789062"/>
      <use xlink:href="#DejaVuSans-3d" x="172.167969"/>
      <use xlink:href="#DejaVuSans-31" x="255.957031"/>
      <use xlink:href="#DejaVuSans-2e" x="319.580078"/>
      <use xlink:href="#DejaVuSans-38" x="351.367188"/>
     </g>
    </g>
   </g>
  </g>
 </g>
 <defs>
  <clipPath id="p3913bebc86">
   <rect x="46.965625" y="22.318125" width="558" height="332.64"/>
  </clipPath>
 </defs>
</svg>
